<svg xmlns="http://www.w3.org/2000/svg" xmlns:xlink="http://www.w3.org/1999/xlink" width="1300" height="1037" viewBox="0 0 1300 1037"><defs><linearGradient id="a" x1="0.5" x2="0.5" y2="1" gradientUnits="objectBoundingBox"><stop offset="0" stop-color="#fff"/><stop offset="1" stop-color="#f5f5f5"/></linearGradient><clipPath id="c"><rect width="1300" height="1037"/></clipPath></defs><g id="b" clip-path="url(#c)"><rect width="1300" height="1037" fill="#fff"/><path d="M0,0H1300a0,0,0,0,1,0,0V945a6,6,0,0,1-6,6H6a6,6,0,0,1-6-6V0A0,0,0,0,1,0,0Z" transform="translate(0 88)" fill="#fff"/><path d="M6,0H1294a6,6,0,0,1,6,6V88a0,0,0,0,1,0,0H0a0,0,0,0,1,0,0V6A6,6,0,0,1,6,0Z" fill="url(#a)"/><line x2="1299.5" transform="translate(0.5 87.5)" fill="none" stroke="#e3e3e3" stroke-width="2"/><g transform="translate(1041 1325)"><rect width="257" height="52" transform="translate(0 -359)" fill="#fff"/><g transform="translate(66 151)"><path d="M87.056,45.443c0,3.458-3.332,6.665-9.683,6.665A18.539,18.539,0,0,1,69.2,50.221l1.509-2.641a14.128,14.128,0,0,0,6.79,1.7c3.018,0,4.9-1.257,4.9-3.269,0-1.509-1.132-2.515-3.71-3.018l-2.641-.629a7.92,7.92,0,0,1-4.778-2.515,4.5,4.5,0,0,1-1.006-3.018c0-3.647,3.458-6.162,8.425-6.162a15.572,15.572,0,0,1,7.859,2.012l-1.886,2.452a12.094,12.094,0,0,0-5.847-1.509c-2.452,0-4.024,1.132-4.024,2.829,0,1.32.88,1.949,3.269,2.578l2.955.692C84.541,40.413,87.056,42.3,87.056,45.443Zm26.533-5.91-2.955-.692c-2.452-.629-3.269-1.257-3.269-2.578,0-1.7,1.635-2.829,4.024-2.829a11.918,11.918,0,0,1,5.847,1.509l1.886-2.452a15.463,15.463,0,0,0-7.859-1.886c-4.967,0-8.425,2.515-8.425,6.162a4.29,4.29,0,0,0,1.006,3.018,7.909,7.909,0,0,0,4.841,2.515l2.641.629c2.578.566,3.71,1.509,3.71,3.018,0,2.075-1.823,3.269-4.9,3.269a14.822,14.822,0,0,1-6.728-1.7l-1.509,2.641a18.342,18.342,0,0,0,8.174,1.886c6.35,0,9.683-3.207,9.683-6.665C119.688,42.3,117.173,40.413,113.59,39.533ZM92.527,51.668h4.213V30.919H92.527Zm29.3-17.919h6.287V51.668h4.15V33.811h6.225l.566-2.892H121.889v2.829Zm60.8,6.539,6.287-9.431h-4.9l-3.9,6.476-3.961-6.413h-5.03l6.665,9.62L170.177,51.73h5.093l4.967-8.237,5.156,8.237h4.9ZM154.835,46.7l3.647,4.967h-4.9l-2.138-3.207a23.639,23.639,0,0,0-4.213-5.156,2.227,2.227,0,0,0-1.635-.629V51.73h-4.087V30.919h7.608c5.533,0,8.111,2.7,8.111,5.973a5.742,5.742,0,0,1-5.722,5.722h-.44A16.7,16.7,0,0,1,154.835,46.7Zm-3.018-7.293a3.256,3.256,0,0,0,1.132-2.515c0-2.138-1.383-3.207-5.03-3.207h-2.326v6.6h2.138a6.4,6.4,0,0,0,4.087-.88ZM162.946,51.73h4.213V30.919h-4.275Zm75.324,15.4L226.009,54.874a17.341,17.341,0,1,1,3.018-3.081l12.323,12.323ZM215.384,55.063a13.77,13.77,0,1,0-13.77-13.77,13.766,13.766,0,0,0,13.77,13.77Z" transform="translate(-69.2 -534.177)" fill="#eee"/></g></g><path d="M31.563,27.669l-6.231-6.231A1.5,1.5,0,0,0,24.269,21H23.25A12.994,12.994,0,1,0,21,23.25v1.019a1.5,1.5,0,0,0,.438,1.063l6.231,6.231a1.494,1.494,0,0,0,2.119,0l1.769-1.769A1.507,1.507,0,0,0,31.563,27.669ZM13,21a8,8,0,1,1,8-8A8,8,0,0,1,13,21Z" transform="translate(32 29)" fill="#1269d3"/><line y2="624" transform="translate(315.5 154.5)" fill="none" stroke="#ddd" stroke-width="1"/><line y2="624" transform="translate(512.5 154.5)" fill="none" stroke="#ddd" stroke-width="1"/><line y2="624" transform="translate(709.5 154.5)" fill="none" stroke="#ddd" stroke-width="1"/><line y2="624" transform="translate(906.5 154.5)" fill="none" stroke="#ddd" stroke-width="1"/><line y2="624" transform="translate(1103.5 154.5)" fill="none" stroke="#ddd" stroke-width="1"/><line y1="624" transform="translate(120.5 154.5)" fill="none" stroke="#e3e3e3" stroke-width="2"/><line y2="1144" transform="translate(120.5 778.5) rotate(-90)" fill="none" stroke="#e3e3e3" stroke-width="2"/><line y2="1144" transform="translate(120.5 490.5) rotate(-90)" fill="none" stroke="#e3e3e3" stroke-width="2"/><line y2="1144" transform="translate(120.5 195.5) rotate(-90)" fill="none" stroke="#e3e3e3" stroke-width="2"/><line y2="1144" transform="translate(120.5 341.5) rotate(-90)" fill="none" stroke="#e3e3e3" stroke-width="2"/><line y2="1144" transform="translate(120.5 631.5) rotate(-90)" fill="none" stroke="#e3e3e3" stroke-width="2"/><line y2="624" transform="translate(147.5 154.5)" fill="none" stroke="#00285a" stroke-width="2" stroke-dasharray="5 10"/><path d="M8.543,23H6.363V8.551L1.992,10.156V8.188L8.2,5.855h.34Zm17.051-7.277a9.915,9.915,0,0,1-1.3,5.66,4.626,4.626,0,0,1-4.066,1.852,4.66,4.66,0,0,1-4.043-1.811,9.411,9.411,0,0,1-1.359-5.408V13.121a9.7,9.7,0,0,1,1.3-5.59A4.662,4.662,0,0,1,20.2,5.7a4.7,4.7,0,0,1,4.055,1.764,9.356,9.356,0,0,1,1.336,5.443Zm-2.168-2.965a7.944,7.944,0,0,0-.773-4.014A2.662,2.662,0,0,0,20.2,7.484a2.627,2.627,0,0,0-2.426,1.254,7.756,7.756,0,0,0-.785,3.855v3.469a8.071,8.071,0,0,0,.8,4.084,2.657,2.657,0,0,0,2.432,1.318,2.621,2.621,0,0,0,2.385-1.242,7.779,7.779,0,0,0,.814-3.914ZM39.07,15.723a9.915,9.915,0,0,1-1.3,5.66A4.626,4.626,0,0,1,33.7,23.234a4.66,4.66,0,0,1-4.043-1.811A9.411,9.411,0,0,1,28.3,16.016V13.121a9.7,9.7,0,0,1,1.3-5.59A4.662,4.662,0,0,1,33.68,5.7a4.7,4.7,0,0,1,4.055,1.764A9.356,9.356,0,0,1,39.07,12.91ZM36.9,12.758a7.944,7.944,0,0,0-.773-4.014,2.662,2.662,0,0,0-2.449-1.26,2.627,2.627,0,0,0-2.426,1.254,7.756,7.756,0,0,0-.785,3.855v3.469a8.071,8.071,0,0,0,.8,4.084A2.657,2.657,0,0,0,33.7,21.465a2.621,2.621,0,0,0,2.385-1.242,7.779,7.779,0,0,0,.814-3.914Z" transform="translate(158.625 444.5)" fill="#1269d3"/><path d="M190.758,3.75c-2.3,0-4.374-1.5-7.59-1.5a10.4,10.4,0,0,0-3.784.711,2.7,2.7,0,0,0,.115-.712c0-.072-.007-.188-.015-.26a2.25,2.25,0,1,0-3.36,2.209l.166,30.718a.75.75,0,0,0,.75.75h.75a.75.75,0,0,0,.75-.75l-.166-15.577A12.9,12.9,0,0,1,184.367,18c2.3,0,4.374,1.5,7.59,1.5a10.89,10.89,0,0,0,6.026-1.874A2.248,2.248,0,0,0,199,15.743V4.5a2.249,2.249,0,0,0-3.136-2.068A13.407,13.407,0,0,1,190.758,3.75Zm5.992,12a8.817,8.817,0,0,1-4.793,1.5c-2.81,0-4.781-1.5-7.59-1.5a16.078,16.078,0,0,0-5.992,1.125V6a8.817,8.817,0,0,1,4.793-1.5c2.81,0,4.781,1.5,7.59,1.5a16.028,16.028,0,0,0,5.992-1.5Z" transform="translate(-3 154)" fill="#00285a"/><path d="M-4235.554-19868.2l-11.9-5.6-13.785,7.207-13.505-11.2-14.9,1.994-15.884-6.193-25.191-2.9-15.185,7.1-13.959-10.146-27.29,15.639-15.185-12.6h-14.2l-13.75,9.1-19.628-12.141-23.546-18.859-26.59-3.988-13.75,7.453-13.785,3.289-15.849,5.6-14-12.352-24.491,1.611-15.64-1.611-14.9,6.754-15.185-17.738-14,1.643-13.5-5.143-17.738,7-34.042,7.486h-18.438l-13.75,16.76-14.485,31.279-13.995-2.205-13.3,5.914h-30.089l-13.54-13.051-54.79,10.951-16.094-5.354-27.64,1.539-14,16.76-84.914-1.609-28.444-13.3-14.485-1.854-20.748-1.889h-15.395l-14.694,3.742-13.3,1.611-18.648,4.2-13.75-4.2h-24.526l-19.8-5.354-67.176,1.889-15.884-4.443-12.805,2.555-16.818,1.889" transform="translate(5466 20350)" fill="none" stroke="#c02" stroke-linecap="round" stroke-width="4"/><path d="M-6700.35-19390l30.33-4.7,14.107,2.049h73.614l24.723,5.5h43.236l32.914-7.549,42.239-2.451,21.593-4.85,13.614,4.85,27.278-9.35,35.906,2.3,22.59-2.3,13.814-32,26.281-3.7,15.26,3.7,14.662-3.7h28.924l11.619-5.15,12.318,8.85h30.918l14.611-3.7h14.662l12.966-33.8,13.913-14,16.307-7.35h25.583l14.313-10,13.963-3.65,12.617,3.65,14.313-3.65,13.664,6.65,15.958-3h17.953l7.63-3.65h14.611l14.313,17.35h15.609l27.278-6.35h30.271l12.966,10h13.265l12.667,5,17.254-8.65,12.966,3.65,12.667,8.65,28.275-3.65,13.913,3.65,13.315-12.3L-5692-19490l15.958,5,14.96-2.35,15.609,11.35,13.365-9,14.262,15.3" transform="translate(6847.85 19879)" fill="none" stroke="#1269d3" stroke-linecap="round" stroke-width="4"/><path d="M-4235.333-19965.434l-12.9-13-13.767,6.1-14-8.566-14.233,2.467-41.2-7.566-15.567,12.2-36.9-3.1-17.967-7.1-14.467-2-14.233,7.566-12.233-4.232-16.633,1.766-12.233-3.1-57.767,3.1-14-3.1-12.467-15.768h-14.9l-9.3,2.434-28,1.334h-19.566l-13.567,4-15.333-4-13.1,2.434-14.233,10.9h-27.333l-15.1,8.867-13.566,12.465-14,30.2h-16.2l-40.333,1.8-13.8-6.232-14,4.434-27.767-1.533s-11.8,2.9-11.8,3.332-45.1,2-45.1,2-13.333,31.566-14.434,33.334-55.1,1.533-55.1,1.533l-29.567,12.033-12.433-5.365-12.233,7.133-15.1,5.1H-5076.9l-13.767,1.566-39.333,7.6-26.9,1.5h-18.2l-20.233-4.232h-76.9l-17.467-2.566-28.733,8.566" transform="translate(5466 20350)" fill="none" stroke="#68b300" stroke-linecap="round" stroke-width="4"/><path d="M73.244,23h-2.18V8.551l-4.371,1.605V8.188L72.9,5.855h.34Zm7.348-8.555.867-8.508H90.2v2H83.3l-.516,4.652a5.506,5.506,0,0,1,2.848-.738,4.707,4.707,0,0,1,3.7,1.541,6.04,6.04,0,0,1,1.371,4.166,5.829,5.829,0,0,1-1.424,4.154A5.19,5.19,0,0,1,85.3,23.234a5.393,5.393,0,0,1-3.691-1.254,5,5,0,0,1-1.629-3.469h2.051a3.443,3.443,0,0,0,1.043,2.209,3.243,3.243,0,0,0,2.227.744,2.925,2.925,0,0,0,2.373-1.031,4.311,4.311,0,0,0,.861-2.848,3.957,3.957,0,0,0-.932-2.748A3.169,3.169,0,0,0,85.127,13.8a3.574,3.574,0,0,0-2.227.621l-.574.469Zm12.75,7.418a1.358,1.358,0,0,1,.334-.937,1.273,1.273,0,0,1,1-.375,1.311,1.311,0,0,1,1.014.375,1.33,1.33,0,0,1,.346.938,1.258,1.258,0,0,1-.346.9,1.334,1.334,0,0,1-1.014.363,1.205,1.205,0,0,1-1.336-1.266Zm19.7-15.926H115.3V18.02a5,5,0,0,1-1.471,3.832,5.49,5.49,0,0,1-3.92,1.383,5.643,5.643,0,0,1-3.961-1.3,4.7,4.7,0,0,1-1.418-3.645h2.25a2.828,2.828,0,0,0,3.129,3.105,3.017,3.017,0,0,0,2.256-.879,3.4,3.4,0,0,0,.873-2.461Zm13.582,15.809a4.6,4.6,0,0,1-3.715,1.488,3.942,3.942,0,0,1-3.088-1.178,5.1,5.1,0,0,1-1.072-3.486V10.32h2.168v8.191q0,2.883,2.344,2.883a3.245,3.245,0,0,0,3.3-1.852V10.32h2.168V23H126.67Zm7.453-11.426.07,1.594a4.621,4.621,0,0,1,3.8-1.828q4.02,0,4.055,4.535V23H139.83V14.609a2.919,2.919,0,0,0-.627-2.027,2.512,2.512,0,0,0-1.916-.656,3.129,3.129,0,0,0-1.852.563,3.82,3.82,0,0,0-1.242,1.477V23h-2.168V10.32ZM147.623,23h-2.168V10.32h2.168ZM145.279,6.957a1.294,1.294,0,0,1,.322-.891,1.21,1.21,0,0,1,.955-.363,1.229,1.229,0,0,1,.961.363,1.28,1.28,0,0,1,.328.891,1.238,1.238,0,0,1-.328.879,1.251,1.251,0,0,1-.961.352,1.232,1.232,0,0,1-.955-.352A1.251,1.251,0,0,1,145.279,6.957ZM167.99,23h-11.18V21.441l5.906-6.562a14.032,14.032,0,0,0,1.811-2.42,4.039,4.039,0,0,0,.5-1.928,3.061,3.061,0,0,0-.809-2.191,2.827,2.827,0,0,0-2.156-.855,3.348,3.348,0,0,0-2.514.92,3.514,3.514,0,0,0-.9,2.561h-2.168A5.032,5.032,0,0,1,158,7.156,5.626,5.626,0,0,1,162.061,5.7a5.406,5.406,0,0,1,3.762,1.248,4.257,4.257,0,0,1,1.383,3.322q0,2.52-3.211,6l-4.57,4.957h8.566Zm13-7.277a9.915,9.915,0,0,1-1.3,5.66,5.405,5.405,0,0,1-8.109.041,9.411,9.411,0,0,1-1.359-5.408V13.121a9.7,9.7,0,0,1,1.3-5.59,5.5,5.5,0,0,1,8.133-.064,9.356,9.356,0,0,1,1.336,5.443Zm-2.168-2.965a7.944,7.944,0,0,0-.773-4.014,2.662,2.662,0,0,0-2.449-1.26,2.627,2.627,0,0,0-2.426,1.254,7.756,7.756,0,0,0-.785,3.855v3.469a8.071,8.071,0,0,0,.8,4.084,2.657,2.657,0,0,0,2.432,1.318A2.621,2.621,0,0,0,178,20.223a7.779,7.779,0,0,0,.814-3.914ZM194.943,23h-11.18V21.441l5.906-6.562a14.032,14.032,0,0,0,1.811-2.42,4.039,4.039,0,0,0,.5-1.928,3.061,3.061,0,0,0-.809-2.191,2.827,2.827,0,0,0-2.156-.855,3.348,3.348,0,0,0-2.514.92,3.514,3.514,0,0,0-.9,2.561h-2.168a5.032,5.032,0,0,1,1.518-3.809A5.626,5.626,0,0,1,189.014,5.7a5.406,5.406,0,0,1,3.762,1.248,4.257,4.257,0,0,1,1.383,3.322q0,2.52-3.211,6l-4.57,4.957h8.566Zm9.422,0h-2.18V8.551l-4.371,1.605V8.188l6.211-2.332h.34Z" transform="translate(-21 942.404) rotate(-43)" fill="#00285a"/><path d="M77.3,23H66.119V21.441l5.906-6.562a14.032,14.032,0,0,0,1.811-2.42,4.039,4.039,0,0,0,.5-1.928,3.061,3.061,0,0,0-.809-2.191,2.827,2.827,0,0,0-2.156-.855,3.348,3.348,0,0,0-2.514.92,3.514,3.514,0,0,0-.9,2.561H65.791a5.032,5.032,0,0,1,1.518-3.809A5.626,5.626,0,0,1,71.369,5.7a5.406,5.406,0,0,1,3.762,1.248,4.257,4.257,0,0,1,1.383,3.322q0,2.52-3.211,6l-4.57,4.957H77.3ZM90.611,7.156,83.545,23H81.271L88.314,7.719H79.08V5.938H90.611Zm2.73,14.707a1.358,1.358,0,0,1,.334-.937,1.273,1.273,0,0,1,1-.375,1.311,1.311,0,0,1,1.014.375,1.33,1.33,0,0,1,.346.938,1.258,1.258,0,0,1-.346.9,1.334,1.334,0,0,1-1.014.363,1.205,1.205,0,0,1-1.336-1.266Zm19.7-15.926H115.3V18.02a5,5,0,0,1-1.471,3.832,5.49,5.49,0,0,1-3.92,1.383,5.643,5.643,0,0,1-3.961-1.3,4.7,4.7,0,0,1-1.418-3.645h2.25a2.828,2.828,0,0,0,3.129,3.105,3.017,3.017,0,0,0,2.256-.879,3.4,3.4,0,0,0,.873-2.461Zm13.582,15.809a4.6,4.6,0,0,1-3.715,1.488,3.942,3.942,0,0,1-3.088-1.178,5.1,5.1,0,0,1-1.072-3.486V10.32h2.168v8.191q0,2.883,2.344,2.883a3.245,3.245,0,0,0,3.3-1.852V10.32h2.168V23H126.67Zm7.453-11.426.07,1.594a4.621,4.621,0,0,1,3.8-1.828q4.02,0,4.055,4.535V23H139.83V14.609a2.919,2.919,0,0,0-.627-2.027,2.512,2.512,0,0,0-1.916-.656,3.129,3.129,0,0,0-1.852.563,3.82,3.82,0,0,0-1.242,1.477V23h-2.168V10.32ZM147.623,23h-2.168V10.32h2.168ZM145.279,6.957a1.294,1.294,0,0,1,.322-.891,1.21,1.21,0,0,1,.955-.363,1.229,1.229,0,0,1,.961.363,1.28,1.28,0,0,1,.328.891,1.238,1.238,0,0,1-.328.879,1.251,1.251,0,0,1-.961.352,1.232,1.232,0,0,1-.955-.352A1.251,1.251,0,0,1,145.279,6.957ZM167.99,23h-11.18V21.441l5.906-6.562a14.032,14.032,0,0,0,1.811-2.42,4.039,4.039,0,0,0,.5-1.928,3.061,3.061,0,0,0-.809-2.191,2.827,2.827,0,0,0-2.156-.855,3.348,3.348,0,0,0-2.514.92,3.514,3.514,0,0,0-.9,2.561h-2.168A5.032,5.032,0,0,1,158,7.156,5.626,5.626,0,0,1,162.061,5.7a5.406,5.406,0,0,1,3.762,1.248,4.257,4.257,0,0,1,1.383,3.322q0,2.52-3.211,6l-4.57,4.957h8.566Zm13-7.277a9.915,9.915,0,0,1-1.3,5.66,5.405,5.405,0,0,1-8.109.041,9.411,9.411,0,0,1-1.359-5.408V13.121a9.7,9.7,0,0,1,1.3-5.59,5.5,5.5,0,0,1,8.133-.064,9.356,9.356,0,0,1,1.336,5.443Zm-2.168-2.965a7.944,7.944,0,0,0-.773-4.014,2.662,2.662,0,0,0-2.449-1.26,2.627,2.627,0,0,0-2.426,1.254,7.756,7.756,0,0,0-.785,3.855v3.469a8.071,8.071,0,0,0,.8,4.084,2.657,2.657,0,0,0,2.432,1.318A2.621,2.621,0,0,0,178,20.223a7.779,7.779,0,0,0,.814-3.914ZM194.943,23h-11.18V21.441l5.906-6.562a14.032,14.032,0,0,0,1.811-2.42,4.039,4.039,0,0,0,.5-1.928,3.061,3.061,0,0,0-.809-2.191,2.827,2.827,0,0,0-2.156-.855,3.348,3.348,0,0,0-2.514.92,3.514,3.514,0,0,0-.9,2.561h-2.168a5.032,5.032,0,0,1,1.518-3.809A5.626,5.626,0,0,1,189.014,5.7a5.406,5.406,0,0,1,3.762,1.248,4.257,4.257,0,0,1,1.383,3.322q0,2.52-3.211,6l-4.57,4.957h8.566Zm9.422,0h-2.18V8.551l-4.371,1.605V8.188l6.211-2.332h.34Z" transform="translate(151 942.404) rotate(-43)" fill="#bbb"/><path d="M76.953,23h-2.18V8.551L70.4,10.156V8.188l6.211-2.332h.34ZM90.43,23H88.25V8.551l-4.371,1.605V8.188L90.09,5.855h.34Zm6.621-1.137a1.358,1.358,0,0,1,.334-.937,1.273,1.273,0,0,1,1-.375,1.311,1.311,0,0,1,1.014.375,1.33,1.33,0,0,1,.346.938,1.258,1.258,0,0,1-.346.9,1.334,1.334,0,0,1-1.014.363,1.205,1.205,0,0,1-1.336-1.266Zm19.7-15.926h2.262V18.02a5,5,0,0,1-1.471,3.832,5.49,5.49,0,0,1-3.92,1.383,5.643,5.643,0,0,1-3.961-1.3,4.7,4.7,0,0,1-1.418-3.645h2.25a2.828,2.828,0,0,0,3.129,3.105,3.017,3.017,0,0,0,2.256-.879,3.4,3.4,0,0,0,.873-2.461Zm13.582,15.809a4.6,4.6,0,0,1-3.715,1.488,3.942,3.942,0,0,1-3.088-1.178,5.1,5.1,0,0,1-1.072-3.486V10.32h2.168v8.191q0,2.883,2.344,2.883a3.245,3.245,0,0,0,3.3-1.852V10.32h2.168V23h-2.062ZM138.09,23h-2.168V5h2.168Zm5.824,0h-2.168V10.32h2.168ZM141.57,6.957a1.294,1.294,0,0,1,.322-.891,1.21,1.21,0,0,1,.955-.363,1.229,1.229,0,0,1,.961.363,1.28,1.28,0,0,1,.328.891,1.238,1.238,0,0,1-.328.879,1.251,1.251,0,0,1-.961.352,1.232,1.232,0,0,1-.955-.352A1.251,1.251,0,0,1,141.57,6.957ZM164.281,23H153.1V21.441l5.906-6.562a14.032,14.032,0,0,0,1.811-2.42,4.039,4.039,0,0,0,.5-1.928,3.061,3.061,0,0,0-.809-2.191,2.827,2.827,0,0,0-2.156-.855,3.348,3.348,0,0,0-2.514.92,3.514,3.514,0,0,0-.9,2.561h-2.168a5.032,5.032,0,0,1,1.518-3.809A5.626,5.626,0,0,1,158.352,5.7a5.406,5.406,0,0,1,3.762,1.248,4.257,4.257,0,0,1,1.383,3.322q0,2.52-3.211,6l-4.57,4.957h8.566Zm13-7.277a9.915,9.915,0,0,1-1.3,5.66,5.405,5.405,0,0,1-8.109.041,9.411,9.411,0,0,1-1.359-5.408V13.121a9.7,9.7,0,0,1,1.3-5.59,5.5,5.5,0,0,1,8.133-.064,9.356,9.356,0,0,1,1.336,5.443Zm-2.168-2.965a7.944,7.944,0,0,0-.773-4.014,2.662,2.662,0,0,0-2.449-1.26,2.627,2.627,0,0,0-2.426,1.254,7.756,7.756,0,0,0-.785,3.855v3.469a8.071,8.071,0,0,0,.8,4.084,2.657,2.657,0,0,0,2.432,1.318,2.621,2.621,0,0,0,2.385-1.242,7.779,7.779,0,0,0,.814-3.914ZM191.234,23h-11.18V21.441l5.906-6.562a14.032,14.032,0,0,0,1.811-2.42,4.039,4.039,0,0,0,.5-1.928,3.061,3.061,0,0,0-.809-2.191,2.827,2.827,0,0,0-2.156-.855,3.348,3.348,0,0,0-2.514.92,3.514,3.514,0,0,0-.9,2.561h-2.168a5.032,5.032,0,0,1,1.518-3.809A5.626,5.626,0,0,1,185.3,5.7a5.406,5.406,0,0,1,3.762,1.248,4.257,4.257,0,0,1,1.383,3.322q0,2.52-3.211,6l-4.57,4.957h8.566Zm9.422,0h-2.18V8.551l-4.371,1.605V8.188l6.211-2.332h.34Z" transform="translate(357 942.404) rotate(-43)" fill="#bbb"/><path d="M81.008,23H69.828V21.441l5.906-6.562a14.032,14.032,0,0,0,1.811-2.42,4.039,4.039,0,0,0,.5-1.928,3.061,3.061,0,0,0-.809-2.191,2.827,2.827,0,0,0-2.156-.855,3.348,3.348,0,0,0-2.514.92,3.514,3.514,0,0,0-.9,2.561H69.5a5.032,5.032,0,0,1,1.518-3.809A5.626,5.626,0,0,1,75.078,5.7,5.406,5.406,0,0,1,78.84,6.951a4.257,4.257,0,0,1,1.383,3.322q0,2.52-3.211,6l-4.57,4.957h8.566ZM84.3,14.445l.867-8.508H93.91v2h-6.9l-.516,4.652a5.506,5.506,0,0,1,2.848-.738,4.707,4.707,0,0,1,3.7,1.541,6.04,6.04,0,0,1,1.371,4.166,5.829,5.829,0,0,1-1.424,4.154,5.19,5.19,0,0,1-3.979,1.518A5.393,5.393,0,0,1,85.32,21.98a5,5,0,0,1-1.629-3.469h2.051a3.443,3.443,0,0,0,1.043,2.209,3.243,3.243,0,0,0,2.227.744,2.925,2.925,0,0,0,2.373-1.031,4.311,4.311,0,0,0,.861-2.848,3.957,3.957,0,0,0-.932-2.748A3.169,3.169,0,0,0,88.836,13.8a3.574,3.574,0,0,0-2.227.621l-.574.469Zm12.75,7.418a1.358,1.358,0,0,1,.334-.937,1.273,1.273,0,0,1,1-.375,1.311,1.311,0,0,1,1.014.375,1.33,1.33,0,0,1,.346.938,1.258,1.258,0,0,1-.346.9,1.334,1.334,0,0,1-1.014.363,1.205,1.205,0,0,1-1.336-1.266Zm19.7-15.926h2.262V18.02a5,5,0,0,1-1.471,3.832,5.49,5.49,0,0,1-3.92,1.383,5.643,5.643,0,0,1-3.961-1.3,4.7,4.7,0,0,1-1.418-3.645h2.25a2.828,2.828,0,0,0,3.129,3.105,3.017,3.017,0,0,0,2.256-.879,3.4,3.4,0,0,0,.873-2.461Zm13.582,15.809a4.6,4.6,0,0,1-3.715,1.488,3.942,3.942,0,0,1-3.088-1.178,5.1,5.1,0,0,1-1.072-3.486V10.32h2.168v8.191q0,2.883,2.344,2.883a3.245,3.245,0,0,0,3.3-1.852V10.32h2.168V23h-2.062ZM138.09,23h-2.168V5h2.168Zm5.824,0h-2.168V10.32h2.168ZM141.57,6.957a1.294,1.294,0,0,1,.322-.891,1.21,1.21,0,0,1,.955-.363,1.229,1.229,0,0,1,.961.363,1.28,1.28,0,0,1,.328.891,1.238,1.238,0,0,1-.328.879,1.251,1.251,0,0,1-.961.352,1.232,1.232,0,0,1-.955-.352A1.251,1.251,0,0,1,141.57,6.957ZM164.281,23H153.1V21.441l5.906-6.562a14.032,14.032,0,0,0,1.811-2.42,4.039,4.039,0,0,0,.5-1.928,3.061,3.061,0,0,0-.809-2.191,2.827,2.827,0,0,0-2.156-.855,3.348,3.348,0,0,0-2.514.92,3.514,3.514,0,0,0-.9,2.561h-2.168a5.032,5.032,0,0,1,1.518-3.809A5.626,5.626,0,0,1,158.352,5.7a5.406,5.406,0,0,1,3.762,1.248,4.257,4.257,0,0,1,1.383,3.322q0,2.52-3.211,6l-4.57,4.957h8.566Zm13-7.277a9.915,9.915,0,0,1-1.3,5.66,5.405,5.405,0,0,1-8.109.041,9.411,9.411,0,0,1-1.359-5.408V13.121a9.7,9.7,0,0,1,1.3-5.59,5.5,5.5,0,0,1,8.133-.064,9.356,9.356,0,0,1,1.336,5.443Zm-2.168-2.965a7.944,7.944,0,0,0-.773-4.014,2.662,2.662,0,0,0-2.449-1.26,2.627,2.627,0,0,0-2.426,1.254,7.756,7.756,0,0,0-.785,3.855v3.469a8.071,8.071,0,0,0,.8,4.084,2.657,2.657,0,0,0,2.432,1.318,2.621,2.621,0,0,0,2.385-1.242,7.779,7.779,0,0,0,.814-3.914ZM191.234,23h-11.18V21.441l5.906-6.562a14.032,14.032,0,0,0,1.811-2.42,4.039,4.039,0,0,0,.5-1.928,3.061,3.061,0,0,0-.809-2.191,2.827,2.827,0,0,0-2.156-.855,3.348,3.348,0,0,0-2.514.92,3.514,3.514,0,0,0-.9,2.561h-2.168a5.032,5.032,0,0,1,1.518-3.809A5.626,5.626,0,0,1,185.3,5.7a5.406,5.406,0,0,1,3.762,1.248,4.257,4.257,0,0,1,1.383,3.322q0,2.52-3.211,6l-4.57,4.957h8.566Zm9.422,0h-2.18V8.551l-4.371,1.605V8.188l6.211-2.332h.34Z" transform="translate(556 942.404) rotate(-43)" fill="#bbb"/><path d="M61.754,15.723a9.915,9.915,0,0,1-1.3,5.66,4.626,4.626,0,0,1-4.066,1.852,4.66,4.66,0,0,1-4.043-1.811,9.411,9.411,0,0,1-1.359-5.408V13.121a9.7,9.7,0,0,1,1.3-5.59A4.662,4.662,0,0,1,56.363,5.7a4.7,4.7,0,0,1,4.055,1.764,9.356,9.356,0,0,1,1.336,5.443Zm-2.168-2.965a7.944,7.944,0,0,0-.773-4.014,2.662,2.662,0,0,0-2.449-1.26,2.627,2.627,0,0,0-2.426,1.254,7.756,7.756,0,0,0-.785,3.855v3.469a8.071,8.071,0,0,0,.8,4.084,2.657,2.657,0,0,0,2.432,1.318,2.621,2.621,0,0,0,2.385-1.242,7.779,7.779,0,0,0,.814-3.914Zm15.293-2.367a3.962,3.962,0,0,1-.674,2.273,4.585,4.585,0,0,1-1.822,1.559A4.89,4.89,0,0,1,74.5,15.9a4.217,4.217,0,0,1,.779,2.5,4.459,4.459,0,0,1-1.494,3.527,6.551,6.551,0,0,1-7.875-.006,4.479,4.479,0,0,1-1.482-3.521,4.343,4.343,0,0,1,.756-2.5,4.7,4.7,0,0,1,2.092-1.687,4.472,4.472,0,0,1-1.793-1.559,4.019,4.019,0,0,1-.656-2.262,4.41,4.41,0,0,1,1.383-3.422,5.872,5.872,0,0,1,7.283,0A4.4,4.4,0,0,1,74.879,10.391Zm-1.77,7.957a3.145,3.145,0,0,0-.908-2.332,3.221,3.221,0,0,0-2.373-.9,3.051,3.051,0,0,0-3.234,3.234,3.029,3.029,0,0,0,.861,2.285,3.848,3.848,0,0,0,4.787-.006A3.022,3.022,0,0,0,73.109,18.348ZM69.852,7.484a2.8,2.8,0,0,0-2.068.791,2.906,2.906,0,0,0-.791,2.15,2.892,2.892,0,0,0,.779,2.1,3.1,3.1,0,0,0,4.16,0,2.892,2.892,0,0,0,.779-2.1A2.893,2.893,0,0,0,71.9,8.3,2.758,2.758,0,0,0,69.852,7.484Zm8.426,14.379a1.358,1.358,0,0,1,.334-.937,1.273,1.273,0,0,1,1-.375,1.311,1.311,0,0,1,1.014.375,1.33,1.33,0,0,1,.346.938,1.258,1.258,0,0,1-.346.9,1.334,1.334,0,0,1-1.014.363,1.205,1.205,0,0,1-1.336-1.266Zm21.973-3.328H93.1L91.5,23h-2.32L95.691,5.938H97.66L104.188,23h-2.309ZM93.781,16.7h5.8l-2.906-7.98Zm20.063,5.051a4.6,4.6,0,0,1-3.715,1.488,3.942,3.942,0,0,1-3.088-1.178,5.1,5.1,0,0,1-1.072-3.486V10.32h2.168v8.191q0,2.883,2.344,2.883a3.245,3.245,0,0,0,3.3-1.852V10.32h2.168V23h-2.062Zm4.887-5.191a7.452,7.452,0,0,1,1.371-4.717,4.727,4.727,0,0,1,7.254-.111l.105-1.406h1.98V22.7a5.158,5.158,0,0,1-1.459,3.879,5.384,5.384,0,0,1-3.92,1.418,6.521,6.521,0,0,1-2.684-.586,4.62,4.62,0,0,1-2-1.605l1.125-1.3a4.239,4.239,0,0,0,3.41,1.723,3.322,3.322,0,0,0,2.467-.891,3.4,3.4,0,0,0,.885-2.508v-1.09a4.456,4.456,0,0,1-3.551,1.5,4.331,4.331,0,0,1-3.6-1.793A7.835,7.835,0,0,1,118.73,16.555Zm2.18.246a5.685,5.685,0,0,0,.879,3.369,2.856,2.856,0,0,0,2.461,1.225,3.176,3.176,0,0,0,3.012-1.863V13.742a3.213,3.213,0,0,0-2.988-1.816,2.882,2.882,0,0,0-2.473,1.23A6.192,6.192,0,0,0,120.91,16.8Zm19.629,4.945a4.6,4.6,0,0,1-3.715,1.488,3.942,3.942,0,0,1-3.088-1.178,5.1,5.1,0,0,1-1.072-3.486V10.32h2.168v8.191q0,2.883,2.344,2.883a3.245,3.245,0,0,0,3.3-1.852V10.32h2.168V23h-2.062Zm12.785-2.109a1.6,1.6,0,0,0-.662-1.365,6.373,6.373,0,0,0-2.309-.838,10.915,10.915,0,0,1-2.613-.844,3.718,3.718,0,0,1-1.43-1.172,2.8,2.8,0,0,1-.463-1.617,3.289,3.289,0,0,1,1.318-2.637,5.149,5.149,0,0,1,3.369-1.078,5.3,5.3,0,0,1,3.5,1.113,3.536,3.536,0,0,1,1.342,2.848H153.2a1.957,1.957,0,0,0-.756-1.535,2.832,2.832,0,0,0-1.9-.645,2.964,2.964,0,0,0-1.852.516,1.623,1.623,0,0,0-.668,1.348,1.315,1.315,0,0,0,.621,1.184,7.642,7.642,0,0,0,2.244.762,11.693,11.693,0,0,1,2.631.867,3.838,3.838,0,0,1,1.494,1.213,2.982,2.982,0,0,1,.486,1.729,3.245,3.245,0,0,1-1.359,2.725,5.7,5.7,0,0,1-3.527,1.025,6.385,6.385,0,0,1-2.7-.539,4.384,4.384,0,0,1-1.834-1.506,3.629,3.629,0,0,1-.662-2.092h2.168a2.245,2.245,0,0,0,.873,1.729,3.387,3.387,0,0,0,2.15.639,3.5,3.5,0,0,0,1.975-.5A1.53,1.53,0,0,0,153.324,19.637ZM161.258,7.25v3.07h2.367V12h-2.367v7.873a1.76,1.76,0,0,0,.316,1.144,1.332,1.332,0,0,0,1.078.381,5.249,5.249,0,0,0,1.031-.141V23a6.322,6.322,0,0,1-1.664.233,2.7,2.7,0,0,1-2.191-.879,3.776,3.776,0,0,1-.738-2.5V12h-2.309V10.32h2.309V7.25ZM183.055,23h-11.18V21.441l5.906-6.562a14.032,14.032,0,0,0,1.811-2.42,4.039,4.039,0,0,0,.5-1.928,3.061,3.061,0,0,0-.809-2.191,2.827,2.827,0,0,0-2.156-.855,3.348,3.348,0,0,0-2.514.92,3.514,3.514,0,0,0-.9,2.561h-2.168a5.032,5.032,0,0,1,1.518-3.809A5.626,5.626,0,0,1,177.125,5.7a5.406,5.406,0,0,1,3.762,1.248,4.257,4.257,0,0,1,1.383,3.322q0,2.52-3.211,6l-4.57,4.957h8.566Zm13-7.277a9.915,9.915,0,0,1-1.3,5.66,5.405,5.405,0,0,1-8.109.041,9.411,9.411,0,0,1-1.359-5.408V13.121a9.7,9.7,0,0,1,1.3-5.59,5.5,5.5,0,0,1,8.133-.064,9.356,9.356,0,0,1,1.336,5.443Zm-2.168-2.965a7.944,7.944,0,0,0-.773-4.014,2.662,2.662,0,0,0-2.449-1.26,2.627,2.627,0,0,0-2.426,1.254,7.756,7.756,0,0,0-.785,3.855v3.469a8.071,8.071,0,0,0,.8,4.084,2.657,2.657,0,0,0,2.432,1.318,2.621,2.621,0,0,0,2.385-1.242,7.779,7.779,0,0,0,.814-3.914ZM210.008,23h-11.18V21.441l5.906-6.562a14.032,14.032,0,0,0,1.811-2.42,4.039,4.039,0,0,0,.5-1.928,3.061,3.061,0,0,0-.809-2.191,2.827,2.827,0,0,0-2.156-.855,3.348,3.348,0,0,0-2.514.92,3.514,3.514,0,0,0-.9,2.561H198.5a5.032,5.032,0,0,1,1.518-3.809A5.626,5.626,0,0,1,204.078,5.7a5.406,5.406,0,0,1,3.762,1.248,4.257,4.257,0,0,1,1.383,3.322q0,2.52-3.211,6l-4.57,4.957h8.566Zm9.422,0h-2.18V8.551l-4.371,1.605V8.188l6.211-2.332h.34Z" transform="translate(749 942.404) rotate(-43)" fill="#bbb"/><path d="M62.234,23H51.055V21.441l5.906-6.562a14.032,14.032,0,0,0,1.811-2.42,4.039,4.039,0,0,0,.5-1.928,3.061,3.061,0,0,0-.809-2.191A2.827,2.827,0,0,0,56.3,7.484a3.348,3.348,0,0,0-2.514.92,3.514,3.514,0,0,0-.9,2.561H50.727a5.032,5.032,0,0,1,1.518-3.809A5.626,5.626,0,0,1,56.3,5.7a5.406,5.406,0,0,1,3.762,1.248,4.257,4.257,0,0,1,1.383,3.322q0,2.52-3.211,6l-4.57,4.957h8.566Zm13.477,0H64.531V21.441l5.906-6.562a14.032,14.032,0,0,0,1.811-2.42,4.039,4.039,0,0,0,.5-1.928,3.061,3.061,0,0,0-.809-2.191,2.827,2.827,0,0,0-2.156-.855,3.348,3.348,0,0,0-2.514.92,3.514,3.514,0,0,0-.9,2.561H64.2a5.032,5.032,0,0,1,1.518-3.809A5.626,5.626,0,0,1,69.781,5.7a5.406,5.406,0,0,1,3.762,1.248,4.257,4.257,0,0,1,1.383,3.322q0,2.52-3.211,6l-4.57,4.957h8.566Zm2.566-1.137a1.358,1.358,0,0,1,.334-.937,1.273,1.273,0,0,1,1-.375,1.311,1.311,0,0,1,1.014.375,1.33,1.33,0,0,1,.346.938,1.258,1.258,0,0,1-.346.9,1.334,1.334,0,0,1-1.014.363,1.205,1.205,0,0,1-1.336-1.266Zm21.973-3.328H93.1L91.5,23h-2.32L95.691,5.938H97.66L104.188,23h-2.309ZM93.781,16.7h5.8l-2.906-7.98Zm20.063,5.051a4.6,4.6,0,0,1-3.715,1.488,3.942,3.942,0,0,1-3.088-1.178,5.1,5.1,0,0,1-1.072-3.486V10.32h2.168v8.191q0,2.883,2.344,2.883a3.245,3.245,0,0,0,3.3-1.852V10.32h2.168V23h-2.062Zm4.887-5.191a7.452,7.452,0,0,1,1.371-4.717,4.727,4.727,0,0,1,7.254-.111l.105-1.406h1.98V22.7a5.158,5.158,0,0,1-1.459,3.879,5.384,5.384,0,0,1-3.92,1.418,6.521,6.521,0,0,1-2.684-.586,4.62,4.62,0,0,1-2-1.605l1.125-1.3a4.239,4.239,0,0,0,3.41,1.723,3.322,3.322,0,0,0,2.467-.891,3.4,3.4,0,0,0,.885-2.508v-1.09a4.456,4.456,0,0,1-3.551,1.5,4.331,4.331,0,0,1-3.6-1.793A7.835,7.835,0,0,1,118.73,16.555Zm2.18.246a5.685,5.685,0,0,0,.879,3.369,2.856,2.856,0,0,0,2.461,1.225,3.176,3.176,0,0,0,3.012-1.863V13.742a3.213,3.213,0,0,0-2.988-1.816,2.882,2.882,0,0,0-2.473,1.23A6.192,6.192,0,0,0,120.91,16.8Zm19.629,4.945a4.6,4.6,0,0,1-3.715,1.488,3.942,3.942,0,0,1-3.088-1.178,5.1,5.1,0,0,1-1.072-3.486V10.32h2.168v8.191q0,2.883,2.344,2.883a3.245,3.245,0,0,0,3.3-1.852V10.32h2.168V23h-2.062Zm12.785-2.109a1.6,1.6,0,0,0-.662-1.365,6.373,6.373,0,0,0-2.309-.838,10.915,10.915,0,0,1-2.613-.844,3.718,3.718,0,0,1-1.43-1.172,2.8,2.8,0,0,1-.463-1.617,3.289,3.289,0,0,1,1.318-2.637,5.149,5.149,0,0,1,3.369-1.078,5.3,5.3,0,0,1,3.5,1.113,3.536,3.536,0,0,1,1.342,2.848H153.2a1.957,1.957,0,0,0-.756-1.535,2.832,2.832,0,0,0-1.9-.645,2.964,2.964,0,0,0-1.852.516,1.623,1.623,0,0,0-.668,1.348,1.315,1.315,0,0,0,.621,1.184,7.642,7.642,0,0,0,2.244.762,11.693,11.693,0,0,1,2.631.867,3.838,3.838,0,0,1,1.494,1.213,2.982,2.982,0,0,1,.486,1.729,3.245,3.245,0,0,1-1.359,2.725,5.7,5.7,0,0,1-3.527,1.025,6.385,6.385,0,0,1-2.7-.539,4.384,4.384,0,0,1-1.834-1.506,3.629,3.629,0,0,1-.662-2.092h2.168a2.245,2.245,0,0,0,.873,1.729,3.387,3.387,0,0,0,2.15.639,3.5,3.5,0,0,0,1.975-.5A1.53,1.53,0,0,0,153.324,19.637ZM161.258,7.25v3.07h2.367V12h-2.367v7.873a1.76,1.76,0,0,0,.316,1.144,1.332,1.332,0,0,0,1.078.381,5.249,5.249,0,0,0,1.031-.141V23a6.322,6.322,0,0,1-1.664.233,2.7,2.7,0,0,1-2.191-.879,3.776,3.776,0,0,1-.738-2.5V12h-2.309V10.32h2.309V7.25ZM183.055,23h-11.18V21.441l5.906-6.562a14.032,14.032,0,0,0,1.811-2.42,4.039,4.039,0,0,0,.5-1.928,3.061,3.061,0,0,0-.809-2.191,2.827,2.827,0,0,0-2.156-.855,3.348,3.348,0,0,0-2.514.92,3.514,3.514,0,0,0-.9,2.561h-2.168a5.032,5.032,0,0,1,1.518-3.809A5.626,5.626,0,0,1,177.125,5.7a5.406,5.406,0,0,1,3.762,1.248,4.257,4.257,0,0,1,1.383,3.322q0,2.52-3.211,6l-4.57,4.957h8.566Zm13-7.277a9.915,9.915,0,0,1-1.3,5.66,5.405,5.405,0,0,1-8.109.041,9.411,9.411,0,0,1-1.359-5.408V13.121a9.7,9.7,0,0,1,1.3-5.59,5.5,5.5,0,0,1,8.133-.064,9.356,9.356,0,0,1,1.336,5.443Zm-2.168-2.965a7.944,7.944,0,0,0-.773-4.014,2.662,2.662,0,0,0-2.449-1.26,2.627,2.627,0,0,0-2.426,1.254,7.756,7.756,0,0,0-.785,3.855v3.469a8.071,8.071,0,0,0,.8,4.084,2.657,2.657,0,0,0,2.432,1.318,2.621,2.621,0,0,0,2.385-1.242,7.779,7.779,0,0,0,.814-3.914ZM210.008,23h-11.18V21.441l5.906-6.562a14.032,14.032,0,0,0,1.811-2.42,4.039,4.039,0,0,0,.5-1.928,3.061,3.061,0,0,0-.809-2.191,2.827,2.827,0,0,0-2.156-.855,3.348,3.348,0,0,0-2.514.92,3.514,3.514,0,0,0-.9,2.561H198.5a5.032,5.032,0,0,1,1.518-3.809A5.626,5.626,0,0,1,204.078,5.7a5.406,5.406,0,0,1,3.762,1.248,4.257,4.257,0,0,1,1.383,3.322q0,2.52-3.211,6l-4.57,4.957h8.566Zm9.422,0h-2.18V8.551l-4.371,1.605V8.188l6.211-2.332h.34Z" transform="translate(938 942.404) rotate(-43)" fill="#bbb"/><path d="M54.207,13.414h1.629a3.58,3.58,0,0,0,2.414-.809,2.7,2.7,0,0,0,.879-2.121q0-3-2.988-3a3.108,3.108,0,0,0-2.244.8,2.809,2.809,0,0,0-.838,2.127H50.891a4.353,4.353,0,0,1,1.482-3.369A5.4,5.4,0,0,1,56.141,5.7,5.337,5.337,0,0,1,59.926,6.98,4.614,4.614,0,0,1,61.3,10.531a3.745,3.745,0,0,1-.721,2.156,4.352,4.352,0,0,1-1.963,1.559,4.193,4.193,0,0,1,2.174,1.477,4.1,4.1,0,0,1,.768,2.52,4.654,4.654,0,0,1-1.5,3.645,5.617,5.617,0,0,1-3.9,1.348,5.766,5.766,0,0,1-3.908-1.3A4.315,4.315,0,0,1,50.738,18.5h2.18a2.789,2.789,0,0,0,.879,2.156,3.343,3.343,0,0,0,2.355.809,3.28,3.28,0,0,0,2.4-.82,3.161,3.161,0,0,0,.832-2.355A2.869,2.869,0,0,0,58.473,16a3.983,3.983,0,0,0-2.637-.82H54.207ZM71.656,23h-2.18V8.551l-4.371,1.605V8.188l6.211-2.332h.34Zm6.621-1.137a1.358,1.358,0,0,1,.334-.937,1.273,1.273,0,0,1,1-.375,1.311,1.311,0,0,1,1.014.375,1.33,1.33,0,0,1,.346.938,1.258,1.258,0,0,1-.346.9,1.334,1.334,0,0,1-1.014.363,1.205,1.205,0,0,1-1.336-1.266Zm21.973-3.328H93.1L91.5,23h-2.32L95.691,5.938H97.66L104.188,23h-2.309ZM93.781,16.7h5.8l-2.906-7.98Zm20.063,5.051a4.6,4.6,0,0,1-3.715,1.488,3.942,3.942,0,0,1-3.088-1.178,5.1,5.1,0,0,1-1.072-3.486V10.32h2.168v8.191q0,2.883,2.344,2.883a3.245,3.245,0,0,0,3.3-1.852V10.32h2.168V23h-2.062Zm4.887-5.191a7.452,7.452,0,0,1,1.371-4.717,4.727,4.727,0,0,1,7.254-.111l.105-1.406h1.98V22.7a5.158,5.158,0,0,1-1.459,3.879,5.384,5.384,0,0,1-3.92,1.418,6.521,6.521,0,0,1-2.684-.586,4.62,4.62,0,0,1-2-1.605l1.125-1.3a4.239,4.239,0,0,0,3.41,1.723,3.322,3.322,0,0,0,2.467-.891,3.4,3.4,0,0,0,.885-2.508v-1.09a4.456,4.456,0,0,1-3.551,1.5,4.331,4.331,0,0,1-3.6-1.793A7.835,7.835,0,0,1,118.73,16.555Zm2.18.246a5.685,5.685,0,0,0,.879,3.369,2.856,2.856,0,0,0,2.461,1.225,3.176,3.176,0,0,0,3.012-1.863V13.742a3.213,3.213,0,0,0-2.988-1.816,2.882,2.882,0,0,0-2.473,1.23A6.192,6.192,0,0,0,120.91,16.8Zm19.629,4.945a4.6,4.6,0,0,1-3.715,1.488,3.942,3.942,0,0,1-3.088-1.178,5.1,5.1,0,0,1-1.072-3.486V10.32h2.168v8.191q0,2.883,2.344,2.883a3.245,3.245,0,0,0,3.3-1.852V10.32h2.168V23h-2.062Zm12.785-2.109a1.6,1.6,0,0,0-.662-1.365,6.373,6.373,0,0,0-2.309-.838,10.915,10.915,0,0,1-2.613-.844,3.718,3.718,0,0,1-1.43-1.172,2.8,2.8,0,0,1-.463-1.617,3.289,3.289,0,0,1,1.318-2.637,5.149,5.149,0,0,1,3.369-1.078,5.3,5.3,0,0,1,3.5,1.113,3.536,3.536,0,0,1,1.342,2.848H153.2a1.957,1.957,0,0,0-.756-1.535,2.832,2.832,0,0,0-1.9-.645,2.964,2.964,0,0,0-1.852.516,1.623,1.623,0,0,0-.668,1.348,1.315,1.315,0,0,0,.621,1.184,7.642,7.642,0,0,0,2.244.762,11.693,11.693,0,0,1,2.631.867,3.838,3.838,0,0,1,1.494,1.213,2.982,2.982,0,0,1,.486,1.729,3.245,3.245,0,0,1-1.359,2.725,5.7,5.7,0,0,1-3.527,1.025,6.385,6.385,0,0,1-2.7-.539,4.384,4.384,0,0,1-1.834-1.506,3.629,3.629,0,0,1-.662-2.092h2.168a2.245,2.245,0,0,0,.873,1.729,3.387,3.387,0,0,0,2.15.639,3.5,3.5,0,0,0,1.975-.5A1.53,1.53,0,0,0,153.324,19.637ZM161.258,7.25v3.07h2.367V12h-2.367v7.873a1.76,1.76,0,0,0,.316,1.144,1.332,1.332,0,0,0,1.078.381,5.249,5.249,0,0,0,1.031-.141V23a6.322,6.322,0,0,1-1.664.233,2.7,2.7,0,0,1-2.191-.879,3.776,3.776,0,0,1-.738-2.5V12h-2.309V10.32h2.309V7.25ZM183.055,23h-11.18V21.441l5.906-6.562a14.032,14.032,0,0,0,1.811-2.42,4.039,4.039,0,0,0,.5-1.928,3.061,3.061,0,0,0-.809-2.191,2.827,2.827,0,0,0-2.156-.855,3.348,3.348,0,0,0-2.514.92,3.514,3.514,0,0,0-.9,2.561h-2.168a5.032,5.032,0,0,1,1.518-3.809A5.626,5.626,0,0,1,177.125,5.7a5.406,5.406,0,0,1,3.762,1.248,4.257,4.257,0,0,1,1.383,3.322q0,2.52-3.211,6l-4.57,4.957h8.566Zm13-7.277a9.915,9.915,0,0,1-1.3,5.66,5.405,5.405,0,0,1-8.109.041,9.411,9.411,0,0,1-1.359-5.408V13.121a9.7,9.7,0,0,1,1.3-5.59,5.5,5.5,0,0,1,8.133-.064,9.356,9.356,0,0,1,1.336,5.443Zm-2.168-2.965a7.944,7.944,0,0,0-.773-4.014,2.662,2.662,0,0,0-2.449-1.26,2.627,2.627,0,0,0-2.426,1.254,7.756,7.756,0,0,0-.785,3.855v3.469a8.071,8.071,0,0,0,.8,4.084,2.657,2.657,0,0,0,2.432,1.318,2.621,2.621,0,0,0,2.385-1.242,7.779,7.779,0,0,0,.814-3.914ZM210.008,23h-11.18V21.441l5.906-6.562a14.032,14.032,0,0,0,1.811-2.42,4.039,4.039,0,0,0,.5-1.928,3.061,3.061,0,0,0-.809-2.191,2.827,2.827,0,0,0-2.156-.855,3.348,3.348,0,0,0-2.514.92,3.514,3.514,0,0,0-.9,2.561H198.5a5.032,5.032,0,0,1,1.518-3.809A5.626,5.626,0,0,1,204.078,5.7a5.406,5.406,0,0,1,3.762,1.248,4.257,4.257,0,0,1,1.383,3.322q0,2.52-3.211,6l-4.57,4.957h8.566Zm9.422,0h-2.18V8.551l-4.371,1.605V8.188l6.211-2.332h.34Z" transform="translate(1060 942.404) rotate(-43)" fill="#bbb"/><path d="M14.578,20.762a5.2,5.2,0,0,1-2.42,1.857,9.775,9.775,0,0,1-3.615.615,7.011,7.011,0,0,1-3.7-.979,6.519,6.519,0,0,1-2.5-2.783,9.613,9.613,0,0,1-.908-4.184V13.8a8.973,8.973,0,0,1,1.8-5.977A6.268,6.268,0,0,1,8.285,5.7a6.474,6.474,0,0,1,4.3,1.365,5.947,5.947,0,0,1,1.992,3.873h-2.25A3.72,3.72,0,0,0,8.3,7.543,3.983,3.983,0,0,0,4.869,9.132a7.759,7.759,0,0,0-1.178,4.6v1.4A7.272,7.272,0,0,0,5,19.7a4.254,4.254,0,0,0,3.551,1.695,7.843,7.843,0,0,0,2.215-.281,3.425,3.425,0,0,0,1.57-.947V16.344H8.391V14.5h6.188Zm2.836-4.219a7.489,7.489,0,0,1,.732-3.352,5.464,5.464,0,0,1,2.039-2.3,5.551,5.551,0,0,1,2.982-.809,5.347,5.347,0,0,1,4.189,1.793,6.9,6.9,0,0,1,1.6,4.77V16.8a7.555,7.555,0,0,1-.709,3.322,5.383,5.383,0,0,1-2.027,2.291,5.614,5.614,0,0,1-3.029.82,5.334,5.334,0,0,1-4.178-1.793,6.863,6.863,0,0,1-1.6-4.746Zm2.18.258a5.424,5.424,0,0,0,.979,3.387,3.316,3.316,0,0,0,5.244-.018,5.932,5.932,0,0,0,.973-3.627,5.415,5.415,0,0,0-.99-3.381,3.148,3.148,0,0,0-2.631-1.295,3.113,3.113,0,0,0-2.59,1.277A5.888,5.888,0,0,0,19.594,16.8ZM31.1,16.543a7.489,7.489,0,0,1,.732-3.352,5.464,5.464,0,0,1,2.039-2.3,5.551,5.551,0,0,1,2.982-.809,5.347,5.347,0,0,1,4.189,1.793,6.9,6.9,0,0,1,1.6,4.77V16.8a7.555,7.555,0,0,1-.709,3.322,5.383,5.383,0,0,1-2.027,2.291,5.614,5.614,0,0,1-3.029.82A5.334,5.334,0,0,1,32.7,21.441,6.863,6.863,0,0,1,31.1,16.7Zm2.18.258a5.424,5.424,0,0,0,.979,3.387A3.316,3.316,0,0,0,39.5,20.17a5.932,5.932,0,0,0,.973-3.627,5.415,5.415,0,0,0-.99-3.381,3.148,3.148,0,0,0-2.631-1.295,3.113,3.113,0,0,0-2.59,1.277A5.888,5.888,0,0,0,33.281,16.8Zm11.566-.246a7.452,7.452,0,0,1,1.371-4.717,4.727,4.727,0,0,1,7.254-.111l.105-1.406h1.98V22.7A5.158,5.158,0,0,1,54.1,26.574a5.384,5.384,0,0,1-3.92,1.418,6.521,6.521,0,0,1-2.684-.586,4.62,4.62,0,0,1-2-1.605l1.125-1.3a4.239,4.239,0,0,0,3.41,1.723,3.322,3.322,0,0,0,2.467-.891,3.4,3.4,0,0,0,.885-2.508v-1.09a4.456,4.456,0,0,1-3.551,1.5,4.331,4.331,0,0,1-3.6-1.793A7.835,7.835,0,0,1,44.848,16.555Zm2.18.246a5.685,5.685,0,0,0,.879,3.369,2.856,2.856,0,0,0,2.461,1.225,3.176,3.176,0,0,0,3.012-1.863V13.742a3.213,3.213,0,0,0-2.988-1.816,2.882,2.882,0,0,0-2.473,1.23A6.192,6.192,0,0,0,47.027,16.8ZM61.184,23H59.016V5h2.168Zm8.73.234a5.54,5.54,0,0,1-4.2-1.693A6.285,6.285,0,0,1,64.1,17.012v-.4a7.609,7.609,0,0,1,.721-3.369,5.622,5.622,0,0,1,2.016-2.32,5.068,5.068,0,0,1,2.807-.838,4.749,4.749,0,0,1,3.844,1.629,7.053,7.053,0,0,1,1.371,4.664v.9H66.27a4.507,4.507,0,0,0,1.1,3.029,3.444,3.444,0,0,0,2.666,1.154A3.776,3.776,0,0,0,71.977,21a4.888,4.888,0,0,0,1.395-1.242L74.7,20.785A5.325,5.325,0,0,1,69.914,23.234Zm-.27-11.367a2.892,2.892,0,0,0-2.2.955,4.642,4.642,0,0,0-1.1,2.678h6.352v-.164a4.129,4.129,0,0,0-.891-2.561A2.723,2.723,0,0,0,69.645,11.867ZM95.66,5.938v11.6a5.442,5.442,0,0,1-1.518,3.949,6.115,6.115,0,0,1-4.084,1.723l-.6.023A6.386,6.386,0,0,1,85,21.723a5.407,5.407,0,0,1-1.687-4.16V5.938h2.227V17.492a3.9,3.9,0,0,0,1.02,2.877,4.667,4.667,0,0,0,5.83.006A3.9,3.9,0,0,0,93.4,17.5V5.938ZM109.582,16.8a7.592,7.592,0,0,1-1.324,4.664,4.244,4.244,0,0,1-3.586,1.77,4.65,4.65,0,0,1-3.633-1.465v6.105H98.871V10.32h1.98l.105,1.406a4.466,4.466,0,0,1,3.68-1.641,4.324,4.324,0,0,1,3.615,1.723,7.675,7.675,0,0,1,1.33,4.793Zm-2.168-.246a5.6,5.6,0,0,0-.914-3.387,2.945,2.945,0,0,0-2.508-1.242,3.187,3.187,0,0,0-2.953,1.746V19.73a3.193,3.193,0,0,0,2.977,1.734,2.931,2.931,0,0,0,2.479-1.236A6.115,6.115,0,0,0,107.414,16.555Zm4.395,0a7.428,7.428,0,0,1,1.383-4.693,4.7,4.7,0,0,1,7.148-.252V5h2.168V23h-1.992l-.105-1.359a4.415,4.415,0,0,1-3.621,1.594,4.331,4.331,0,0,1-3.592-1.8,7.512,7.512,0,0,1-1.389-4.711Zm2.168.246a5.624,5.624,0,0,0,.891,3.375,2.879,2.879,0,0,0,2.461,1.219,3.163,3.163,0,0,0,3.012-1.852V13.719a3.187,3.187,0,0,0-2.988-1.793,2.893,2.893,0,0,0-2.484,1.23A6.192,6.192,0,0,0,113.977,16.8ZM133.7,23a4.554,4.554,0,0,1-.3-1.336,4.837,4.837,0,0,1-3.609,1.57,4.476,4.476,0,0,1-3.076-1.061,3.431,3.431,0,0,1-1.2-2.689,3.584,3.584,0,0,1,1.506-3.076,7.1,7.1,0,0,1,4.236-1.1h2.109v-1a2.435,2.435,0,0,0-.68-1.811,2.732,2.732,0,0,0-2-.674,3.161,3.161,0,0,0-1.945.586,1.727,1.727,0,0,0-.785,1.418h-2.18A2.992,2.992,0,0,1,126.439,12a4.6,4.6,0,0,1,1.828-1.4,6.15,6.15,0,0,1,2.537-.516,5.013,5.013,0,0,1,3.434,1.1,3.953,3.953,0,0,1,1.289,3.018v5.836a7.135,7.135,0,0,0,.445,2.777V23Zm-3.6-1.652a3.81,3.81,0,0,0,1.934-.527,3.19,3.19,0,0,0,1.324-1.371v-2.6h-1.7q-3.984,0-3.984,2.332a1.974,1.974,0,0,0,.68,1.594A2.612,2.612,0,0,0,130.1,21.348Zm11.766-14.1v3.07h2.367V12h-2.367v7.873a1.76,1.76,0,0,0,.316,1.144,1.332,1.332,0,0,0,1.078.381,5.249,5.249,0,0,0,1.031-.141V23a6.322,6.322,0,0,1-1.664.233,2.7,2.7,0,0,1-2.191-.879,3.776,3.776,0,0,1-.738-2.5V12h-2.309V10.32H139.7V7.25Zm10.16,15.984a5.54,5.54,0,0,1-4.2-1.693,6.285,6.285,0,0,1-1.617-4.529v-.4a7.609,7.609,0,0,1,.721-3.369,5.622,5.622,0,0,1,2.016-2.32,5.068,5.068,0,0,1,2.807-.838,4.749,4.749,0,0,1,3.844,1.629,7.053,7.053,0,0,1,1.371,4.664v.9h-8.59a4.507,4.507,0,0,0,1.1,3.029,3.444,3.444,0,0,0,2.666,1.154A3.776,3.776,0,0,0,154.09,21a4.888,4.888,0,0,0,1.395-1.242l1.324,1.031A5.325,5.325,0,0,1,152.027,23.234Zm-.27-11.367a2.892,2.892,0,0,0-2.2.955,4.642,4.642,0,0,0-1.1,2.678H154.8v-.164a4.129,4.129,0,0,0-.891-2.561A2.723,2.723,0,0,0,151.758,11.867Z" transform="translate(208.625 151.5)" fill="#00285a"/><path d="M25.12,16.944H13.7V21.3h6.016c-.736,3.3-3.1,4.672-6.048,4.672-4.256,0-7.072-2.624-7.072-7.936S9.376,10.1,13.664,10.1a5.825,5.825,0,0,1,6.112,4.7l5.12-.864c-1.28-5.248-5.664-8.224-11.2-8.224-6.976,0-12.128,4.576-12.128,12.32,0,7.712,5.184,12.32,12.16,12.32,7.008,0,11.392-4.736,11.392-11.808Zm11.04-3.808c-5.056,0-8.8,3.392-8.8,8.608,0,5.184,3.744,8.608,8.8,8.608s8.8-3.424,8.8-8.608C44.96,16.528,41.216,13.136,36.16,13.136Zm0,4c2.4,0,4.064,1.7,4.064,4.608,0,2.88-1.664,4.576-4.064,4.576s-4.064-1.7-4.064-4.576C32.1,18.832,33.76,17.136,36.16,17.136Zm19.68-4c-5.056,0-8.8,3.392-8.8,8.608,0,5.184,3.744,8.608,8.8,8.608s8.8-3.424,8.8-8.608C64.64,16.528,60.9,13.136,55.84,13.136Zm0,4c2.4,0,4.064,1.7,4.064,4.608,0,2.88-1.664,4.576-4.064,4.576s-4.064-1.7-4.064-4.576C51.776,18.832,53.44,17.136,55.84,17.136Zm18.848-4c-4.672,0-7.968,3.424-7.968,8.608s3.3,8.608,7.968,8.608a6.37,6.37,0,0,0,4.672-1.76V30.96c0,2.368-1.568,3.552-3.872,3.552-2.112,0-3.488-.96-3.712-2.56l-4.64.16c.608,3.776,3.328,6.368,8.512,6.368,5.088,0,8.352-3.1,8.352-7.872V13.456H79.616v1.728A6.047,6.047,0,0,0,74.688,13.136Zm.768,4c2.3,0,3.9,1.568,3.9,4.224v.768c0,2.656-1.6,4.224-3.9,4.224-2.336,0-4-1.664-4-4.608S73.12,17.136,75.456,17.136ZM92.288,30V5.136H87.616V30Zm19.328-6.784V21.36c0-5.152-3.136-8.224-7.9-8.224-4.928,0-8.416,3.264-8.416,8.608,0,5.312,3.488,8.608,8.544,8.608,3.872,0,7.04-2.24,7.616-5.376l-4.7-.224c-.352,1.152-1.408,1.824-3.04,1.824a3.234,3.234,0,0,1-3.456-3.36Zm-7.936-6.432c2.112,0,3.136,1.312,3.232,3.328h-6.656A3.232,3.232,0,0,1,103.68,16.784Zm17.5-10.72V30h4.96V21.488h5.408c4.544,0,7.712-2.784,7.712-7.712s-3.168-7.712-7.712-7.712Zm4.928,4.352h4.8a3.116,3.116,0,0,1,3.328,3.36,3.091,3.091,0,0,1-3.328,3.328h-4.8Zm21.728,2.72c-4.256,0-6.912,3.008-6.912,5.92l4.672.192a2.115,2.115,0,0,1,2.3-2.176c1.44,0,2.144.9,2.144,2.56v.64l-2.944.16c-3.52.16-6.624,1.344-6.624,5.024,0,3.2,2.176,4.9,5.5,4.9a5.726,5.726,0,0,0,4.224-1.7V30h4.512V19.792C154.72,15.44,152.288,13.136,147.84,13.136Zm2.208,10.208v.7c0,1.76-1.28,2.688-2.976,2.688-1.12,0-1.92-.416-1.92-1.5,0-1.184.992-1.664,2.4-1.728Zm15.488-10.208c-4.672,0-7.968,3.424-7.968,8.608s3.3,8.608,7.968,8.608a6.37,6.37,0,0,0,4.672-1.76V30.96c0,2.368-1.568,3.552-3.872,3.552-2.112,0-3.488-.96-3.712-2.56l-4.64.16c.608,3.776,3.328,6.368,8.512,6.368,5.088,0,8.352-3.1,8.352-7.872V13.456h-4.384v1.728A6.047,6.047,0,0,0,165.536,13.136Zm.768,4c2.3,0,3.9,1.568,3.9,4.224v.768c0,2.656-1.6,4.224-3.9,4.224-2.336,0-4-1.664-4-4.608S163.968,17.136,166.3,17.136Zm27.584,6.08V21.36c0-5.152-3.136-8.224-7.9-8.224-4.928,0-8.416,3.264-8.416,8.608,0,5.312,3.488,8.608,8.544,8.608,3.872,0,7.04-2.24,7.616-5.376l-4.7-.224c-.352,1.152-1.408,1.824-3.04,1.824a3.234,3.234,0,0,1-3.456-3.36Zm-7.936-6.432c2.112,0,3.136,1.312,3.232,3.328h-6.656A3.232,3.232,0,0,1,185.952,16.784Zm32.864-6.368V6.064h-15.36V30h15.392V25.616H208.416v-5.76h9.024V15.6h-9.024V10.416ZM231.68,21.648l5.12-8.192h-5.312l-3.072,5.056-3.072-5.056h-5.312l5.088,8.192L219.968,30h5.312l3.136-5.152L231.584,30h5.344Zm16.48-8.512a6.023,6.023,0,0,0-4.9,2.048V13.456h-4.416v24.7h4.672V28.592a6.289,6.289,0,0,0,4.64,1.76c4.7,0,8-3.424,8-8.608S252.864,13.136,248.16,13.136Zm-.736,4c2.336,0,4,1.664,4,4.608s-1.664,4.608-4,4.608c-2.3,0-3.9-1.568-3.9-4.224V21.36C243.52,18.7,245.12,17.136,247.424,17.136Zm27.136,6.08V21.36c0-5.152-3.136-8.224-7.9-8.224-4.928,0-8.416,3.264-8.416,8.608,0,5.312,3.488,8.608,8.544,8.608,3.872,0,7.04-2.24,7.616-5.376l-4.7-.224c-.352,1.152-1.408,1.824-3.04,1.824a3.234,3.234,0,0,1-3.456-3.36Zm-7.936-6.432c2.112,0,3.136,1.312,3.232,3.328H263.2A3.232,3.232,0,0,1,266.624,16.784ZM286.592,13.3c-2.528,0-3.84.96-4.544,2.048V13.456h-4.512V30h4.672V21.616c0-2.272,1.7-3.808,4.384-3.808Zm4.64-8.064a2.814,2.814,0,0,0-2.784,2.816,2.8,2.8,0,0,0,5.6,0A2.8,2.8,0,0,0,291.232,5.232ZM293.568,30V13.456H288.9V30ZM312.9,23.216V21.36c0-5.152-3.136-8.224-7.9-8.224-4.928,0-8.416,3.264-8.416,8.608,0,5.312,3.488,8.608,8.544,8.608,3.872,0,7.04-2.24,7.616-5.376l-4.7-.224c-.352,1.152-1.408,1.824-3.04,1.824a3.234,3.234,0,0,1-3.456-3.36Zm-7.936-6.432c2.112,0,3.136,1.312,3.232,3.328h-6.656A3.232,3.232,0,0,1,304.96,16.784Zm19.776-3.648a5,5,0,0,0-4.448,2.016v-1.7h-4.416V30h4.672V20.816a3.03,3.03,0,0,1,3.072-3.328c1.792,0,2.912,1.184,2.912,3.3V30H331.2V19.888C331.2,15.6,328.544,13.136,324.736,13.136Zm17.76,0c-4.9,0-8.48,3.168-8.48,8.608,0,5.408,3.616,8.608,8.48,8.608,4.064,0,7.2-2.4,7.84-6.3l-4.544-.416a3.07,3.07,0,0,1-3.3,2.688c-2.176,0-3.744-1.664-3.744-4.576,0-2.944,1.568-4.608,3.744-4.608a3.09,3.09,0,0,1,3.264,2.784l4.576-.384C349.728,15.536,346.528,13.136,342.5,13.136Zm26.048,10.08V21.36c0-5.152-3.136-8.224-7.9-8.224-4.928,0-8.416,3.264-8.416,8.608,0,5.312,3.488,8.608,8.544,8.608,3.872,0,7.04-2.24,7.616-5.376l-4.7-.224c-.352,1.152-1.408,1.824-3.04,1.824a3.234,3.234,0,0,1-3.456-3.36Zm-7.936-6.432c2.112,0,3.136,1.312,3.232,3.328h-6.656A3.232,3.232,0,0,1,360.608,16.784Zm37.728-10.72h-4.928V20.208c0,3.744-1.856,5.76-5.248,5.76-3.456,0-5.28-2.016-5.28-5.76V6.064h-4.928V20.272c0,6.4,3.872,10.08,10.208,10.08,6.272,0,10.176-3.68,10.176-10.08Zm13.12,7.072a6.023,6.023,0,0,0-4.9,2.048V13.456h-4.416v24.7h4.672V28.592a6.289,6.289,0,0,0,4.64,1.76c4.7,0,8-3.424,8-8.608S416.16,13.136,411.456,13.136Zm-.736,4c2.336,0,4,1.664,4,4.608s-1.664,4.608-4,4.608c-2.3,0-3.9-1.568-3.9-4.224V21.36C406.816,18.7,408.416,17.136,410.72,17.136ZM438.816,30V5.136h-4.64V14.9a6.192,6.192,0,0,0-4.672-1.76c-4.672,0-7.968,3.392-7.968,8.608,0,5.184,3.3,8.608,7.968,8.608a6.145,6.145,0,0,0,4.928-2.048V30Zm-8.544-12.864c2.3,0,3.9,1.568,3.9,4.224V22.1c0,2.688-1.6,4.224-3.9,4.224-2.336,0-4-1.632-4-4.576S427.936,17.136,430.272,17.136Zm18.912-4c-4.256,0-6.912,3.008-6.912,5.92l4.672.192a2.115,2.115,0,0,1,2.3-2.176c1.44,0,2.144.9,2.144,2.56v.64l-2.944.16c-3.52.16-6.624,1.344-6.624,5.024,0,3.2,2.176,4.9,5.5,4.9a5.726,5.726,0,0,0,4.224-1.7V30h4.512V19.792C456.064,15.44,453.632,13.136,449.184,13.136Zm2.208,10.208v.7c0,1.76-1.28,2.688-2.976,2.688-1.12,0-1.92-.416-1.92-1.5,0-1.184.992-1.664,2.4-1.728Zm14.144-5.856h3.9V13.456h-3.872l.032-5.472h-4.672l-.032,5.472h-3.04v4.032h3.008l-.032,7.264c-.032,3.84,2.432,5.568,6.016,5.568a15.559,15.559,0,0,0,2.592-.192v-4.16a6.908,6.908,0,0,1-1.44.16,2.282,2.282,0,0,1-2.5-2.5Zm21.888,5.728V21.36c0-5.152-3.136-8.224-7.9-8.224-4.928,0-8.416,3.264-8.416,8.608,0,5.312,3.488,8.608,8.544,8.608,3.872,0,7.04-2.24,7.616-5.376l-4.7-.224c-.352,1.152-1.408,1.824-3.04,1.824a3.234,3.234,0,0,1-3.456-3.36Zm-7.936-6.432c2.112,0,3.136,1.312,3.232,3.328h-6.656A3.232,3.232,0,0,1,479.488,16.784Zm12.384-3.648a2.816,2.816,0,1,0,2.848,2.848A2.807,2.807,0,0,0,491.872,13.136Zm0,11.552a2.832,2.832,0,1,0,2.848,2.848A2.807,2.807,0,0,0,491.872,24.688ZM526.944,30,516.64,6.064h-4.16L502.208,30h5.408l1.984-4.608h9.952L521.5,30ZM511.36,21.36l3.232-7.648,3.232,7.648ZM533.44,30V5.136h-4.672V30Zm8.576,0V5.136h-4.672V30Zm19.328-6.784V21.36c0-5.152-3.136-8.224-7.9-8.224-4.928,0-8.416,3.264-8.416,8.608,0,5.312,3.488,8.608,8.544,8.608,3.872,0,7.04-2.24,7.616-5.376l-4.7-.224c-.352,1.152-1.408,1.824-3.04,1.824a3.234,3.234,0,0,1-3.456-3.36Zm-7.936-6.432c2.112,0,3.136,1.312,3.232,3.328h-6.656A3.232,3.232,0,0,1,553.408,16.784Zm12.576,7.9a2.82,2.82,0,0,0-.128,5.632,4.712,4.712,0,0,1-2.144,2.88v1.952c3.392-1.728,4.9-4.288,4.9-7.328C568.608,26,567.648,24.688,565.984,24.688ZM584.96,13.136c-4.672,0-7.968,3.424-7.968,8.608s3.3,8.608,7.968,8.608a6.37,6.37,0,0,0,4.672-1.76V30.96c0,2.368-1.568,3.552-3.872,3.552-2.112,0-3.488-.96-3.712-2.56l-4.64.16c.608,3.776,3.328,6.368,8.512,6.368,5.088,0,8.352-3.1,8.352-7.872V13.456h-4.384v1.728A6.047,6.047,0,0,0,584.96,13.136Zm.768,4c2.3,0,3.9,1.568,3.9,4.224v.768c0,2.656-1.6,4.224-3.9,4.224-2.336,0-4-1.664-4-4.608S583.392,17.136,585.728,17.136ZM612.544,30V13.456h-4.672V22.8c0,1.856-1.024,3.2-2.816,3.2-1.824,0-2.656-1.12-2.656-3.136V13.456h-4.672v10.4c0,4.032,2.3,6.5,6.112,6.5a4.73,4.73,0,0,0,4.288-2.016V30Zm9.6-12.512h3.9V13.456h-3.872l.032-5.472h-4.672l-.032,5.472h-3.04v4.032h3.008l-.032,7.264c-.032,3.84,2.432,5.568,6.016,5.568a15.558,15.558,0,0,0,2.592-.192v-4.16a6.908,6.908,0,0,1-1.44.16,2.282,2.282,0,0,1-2.5-2.5Zm21.888,5.728V21.36c0-5.152-3.136-8.224-7.9-8.224-4.928,0-8.416,3.264-8.416,8.608,0,5.312,3.488,8.608,8.544,8.608,3.872,0,7.04-2.24,7.616-5.376l-4.7-.224c-.352,1.152-1.408,1.824-3.04,1.824a3.234,3.234,0,0,1-3.456-3.36ZM636.1,16.784c2.112,0,3.136,1.312,3.232,3.328h-6.656A3.232,3.232,0,0,1,636.1,16.784Zm35.84,13.568,2.752-3.552-3.936-3.3a30.4,30.4,0,0,0,2.048-5.6l-4.352-1.12a26.966,26.966,0,0,1-1.184,3.808l-5.056-4.224c-1.536-1.28-2.976-2.336-2.976-4.032a2.283,2.283,0,0,1,2.5-2.528,2.471,2.471,0,0,1,2.656,2.368l4.768-.384c-.576-3.84-3.488-6.08-7.424-6.08-4.352,0-7.424,2.272-7.424,6.688a6.738,6.738,0,0,0,1.888,4.48c-2.208,1.6-3.744,3.488-3.744,6.528,0,3.808,2.784,6.912,8.48,6.912a9.527,9.527,0,0,0,7.264-3.1Zm-10.944-4.224c-2.176,0-3.52-1.184-3.52-3.168a4.072,4.072,0,0,1,1.632-3.392l5.792,4.864A5.318,5.318,0,0,1,660.992,26.128Zm26.976-12.992c-4.16,0-6.624,2.048-6.624,5.216,0,3.392,2.336,4.128,5.856,5.024,2.4.576,3.008.9,3.008,1.888,0,.96-.8,1.5-2.08,1.5-1.6,0-2.336-.832-2.4-2.048l-4.672.256c.352,3.456,2.816,5.376,7.04,5.376,4.32,0,6.784-2.144,6.784-5.5,0-3.008-2.336-4.032-5.632-4.9-1.984-.512-3.232-.672-3.232-1.824,0-.9.64-1.408,1.888-1.408a1.91,1.91,0,0,1,2.112,2.016l4.64-.256C694.368,15.408,692.16,13.136,687.968,13.136Zm17.376,0c-4.9,0-8.48,3.168-8.48,8.608,0,5.408,3.616,8.608,8.48,8.608,4.064,0,7.2-2.4,7.84-6.3l-4.544-.416a3.07,3.07,0,0,1-3.3,2.688c-2.176,0-3.744-1.664-3.744-4.576,0-2.944,1.568-4.608,3.744-4.608a3.09,3.09,0,0,1,3.264,2.784l4.576-.384C712.576,15.536,709.376,13.136,705.344,13.136Zm15.3-8h-4.672V30h4.672V20.816a3.03,3.03,0,0,1,3.072-3.328c1.792,0,2.912,1.184,2.912,3.3V30H731.3V19.888c0-4.288-2.656-6.752-6.464-6.752a5.114,5.114,0,0,0-4.192,1.728ZM739.616,30V5.136h-4.672V30Zm19.328-6.784V21.36c0-5.152-3.136-8.224-7.9-8.224-4.928,0-8.416,3.264-8.416,8.608,0,5.312,3.488,8.608,8.544,8.608,3.872,0,7.04-2.24,7.616-5.376l-4.7-.224c-.352,1.152-1.408,1.824-3.04,1.824a3.234,3.234,0,0,1-3.456-3.36Zm-7.936-6.432c2.112,0,3.136,1.312,3.232,3.328h-6.656A3.232,3.232,0,0,1,751.008,16.784Zm18.5-3.648c-4.9,0-8.48,3.168-8.48,8.608,0,5.408,3.616,8.608,8.48,8.608,4.064,0,7.2-2.4,7.84-6.3l-4.544-.416a3.07,3.07,0,0,1-3.3,2.688c-2.176,0-3.744-1.664-3.744-4.576,0-2.944,1.568-4.608,3.744-4.608a3.09,3.09,0,0,1,3.264,2.784l4.576-.384C776.736,15.536,773.536,13.136,769.5,13.136Zm15.3-8h-4.672V30H784.8V20.816a3.03,3.03,0,0,1,3.072-3.328c1.792,0,2.912,1.184,2.912,3.3V30h4.672V19.888c0-4.288-2.656-6.752-6.464-6.752a5.114,5.114,0,0,0-4.192,1.728Zm20.032,12.352h3.9V13.456h-3.872l.032-5.472h-4.672l-.032,5.472h-3.04v4.032h3.008l-.032,7.264c-.032,3.84,2.432,5.568,6.016,5.568a15.558,15.558,0,0,0,2.592-.192v-4.16a6.908,6.908,0,0,1-1.44.16,2.282,2.282,0,0,1-2.5-2.5Zm21.888,5.728V21.36c0-5.152-3.136-8.224-7.9-8.224-4.928,0-8.416,3.264-8.416,8.608,0,5.312,3.488,8.608,8.544,8.608,3.872,0,7.04-2.24,7.616-5.376l-4.7-.224c-.352,1.152-1.408,1.824-3.04,1.824a3.234,3.234,0,0,1-3.456-3.36Zm-7.936-6.432c2.112,0,3.136,1.312,3.232,3.328H815.36A3.232,3.232,0,0,1,818.784,16.784Zm17.5-10.72V30h9.824c6.816,0,11.9-4.448,11.9-11.968S852.96,6.064,846.144,6.064Zm4.928,4.224h4.96c4.192,0,6.944,2.592,6.944,7.744s-2.784,7.744-6.944,7.744h-4.96Zm27.84,2.848c-5.056,0-8.8,3.392-8.8,8.608,0,5.184,3.744,8.608,8.8,8.608s8.8-3.424,8.8-8.608C877.856,16.528,874.112,13.136,869.056,13.136Zm0,4c2.4,0,4.064,1.7,4.064,4.608,0,2.88-1.664,4.576-4.064,4.576s-4.064-1.7-4.064-4.576C864.992,18.832,866.656,17.136,869.056,17.136Zm30.816-4a5.7,5.7,0,0,0-5.088,2.624,5.872,5.872,0,0,0-5.184-2.624,4.772,4.772,0,0,0-4.352,2.016v-1.7h-4.416V30H885.5V20.816c0-1.984,1.12-3.328,2.976-3.328,1.7,0,2.688,1.184,2.688,3.3V30h4.672V20.24a2.8,2.8,0,0,1,2.88-2.752c1.792,0,2.752,1.184,2.752,3.3V30h4.672V19.856C906.144,15.664,903.648,13.136,899.872,13.136Zm16.448,0c-4.256,0-6.912,3.008-6.912,5.92l4.672.192a2.115,2.115,0,0,1,2.3-2.176c1.44,0,2.144.9,2.144,2.56v.64l-2.944.16c-3.52.16-6.624,1.344-6.624,5.024,0,3.2,2.176,4.9,5.5,4.9a5.726,5.726,0,0,0,4.224-1.7V30H923.2V19.792C923.2,15.44,920.768,13.136,916.32,13.136Zm2.208,10.208v.7c0,1.76-1.28,2.688-2.976,2.688-1.12,0-1.92-.416-1.92-1.5,0-1.184.992-1.664,2.4-1.728ZM929.28,5.232A2.814,2.814,0,0,0,926.5,8.048a2.8,2.8,0,0,0,5.6,0A2.8,2.8,0,0,0,929.28,5.232ZM931.616,30V13.456h-4.672V30Zm12.768-16.864a5,5,0,0,0-4.448,2.016v-1.7H935.52V30h4.672V20.816a3.03,3.03,0,0,1,3.072-3.328c1.792,0,2.912,1.184,2.912,3.3V30h4.672V19.888C950.848,15.6,948.192,13.136,944.384,13.136Zm15.84,0c-4.16,0-6.624,2.048-6.624,5.216,0,3.392,2.336,4.128,5.856,5.024,2.4.576,3.008.9,3.008,1.888,0,.96-.8,1.5-2.08,1.5-1.6,0-2.336-.832-2.4-2.048l-4.672.256c.352,3.456,2.816,5.376,7.04,5.376,4.32,0,6.784-2.144,6.784-5.5,0-3.008-2.336-4.032-5.632-4.9-1.984-.512-3.232-.672-3.232-1.824,0-.9.64-1.408,1.888-1.408a1.91,1.91,0,0,1,2.112,2.016l4.64-.256C966.624,15.408,964.416,13.136,960.224,13.136Z" transform="translate(93 26)" fill="#00285a"/><path d="M9.255,25H6.894V9.347L2.158,11.086V8.953L8.887,6.427h.368Zm18.472-7.884q0,4.126-1.409,6.132a5.012,5.012,0,0,1-4.405,2.006,5.048,5.048,0,0,1-4.38-1.961,10.2,10.2,0,0,1-1.473-5.859V14.3q0-4.075,1.409-6.056a5.05,5.05,0,0,1,4.418-1.98,5.1,5.1,0,0,1,4.393,1.911q1.409,1.911,1.447,5.9ZM25.378,13.9a8.606,8.606,0,0,0-.838-4.348,2.884,2.884,0,0,0-2.653-1.365A2.846,2.846,0,0,0,19.259,9.55a8.4,8.4,0,0,0-.851,4.177v3.758a8.744,8.744,0,0,0,.87,4.424,2.879,2.879,0,0,0,2.634,1.428A2.839,2.839,0,0,0,24.5,21.991a8.428,8.428,0,0,0,.882-4.24Zm16.948,3.212q0,4.126-1.409,6.132a5.012,5.012,0,0,1-4.405,2.006,5.048,5.048,0,0,1-4.38-1.961,10.2,10.2,0,0,1-1.473-5.859V14.3q0-4.075,1.409-6.056a5.05,5.05,0,0,1,4.418-1.98,5.1,5.1,0,0,1,4.393,1.911q1.409,1.911,1.447,5.9ZM39.978,13.9a8.606,8.606,0,0,0-.838-4.348,2.884,2.884,0,0,0-2.653-1.365A2.846,2.846,0,0,0,33.858,9.55a8.4,8.4,0,0,0-.851,4.177v3.758a8.744,8.744,0,0,0,.87,4.424,2.879,2.879,0,0,0,2.634,1.428A2.839,2.839,0,0,0,39.1,21.991a8.428,8.428,0,0,0,.882-4.24ZM45.5,28.682l-1.333-.914a6.126,6.126,0,0,0,1.244-3.428V22.22h2.3v1.841a5.783,5.783,0,0,1-.628,2.564A6,6,0,0,1,45.5,28.682ZM62.029,17.116q0,4.126-1.409,6.132a5.012,5.012,0,0,1-4.405,2.006,5.048,5.048,0,0,1-4.38-1.961,10.2,10.2,0,0,1-1.473-5.859V14.3q0-4.075,1.409-6.056a5.05,5.05,0,0,1,4.418-1.98,5.1,5.1,0,0,1,4.393,1.911q1.409,1.911,1.447,5.9ZM59.681,13.9a8.606,8.606,0,0,0-.838-4.348,2.884,2.884,0,0,0-2.653-1.365A2.846,2.846,0,0,0,53.562,9.55a8.4,8.4,0,0,0-.851,4.177v3.758a8.744,8.744,0,0,0,.87,4.424,2.879,2.879,0,0,0,2.634,1.428A2.839,2.839,0,0,0,58.8,21.991a8.428,8.428,0,0,0,.882-4.24Zm5.154-3.834A3.751,3.751,0,0,1,65.9,7.328a3.983,3.983,0,0,1,5.459.006A3.881,3.881,0,0,1,72.4,10.146v.9a3.7,3.7,0,0,1-1.06,2.736,3.654,3.654,0,0,1-2.7,1.06,3.735,3.735,0,0,1-2.729-1.06,3.78,3.78,0,0,1-1.079-2.825Zm1.752.972a2.4,2.4,0,0,0,.559,1.635,1.885,1.885,0,0,0,1.5.643A1.848,1.848,0,0,0,70.1,12.7a2.481,2.481,0,0,0,.552-1.705v-.929A2.462,2.462,0,0,0,70.1,8.421a2.024,2.024,0,0,0-2.971,0,2.54,2.54,0,0,0-.546,1.692Zm7.249,9.425a3.729,3.729,0,0,1,1.06-2.736,4.009,4.009,0,0,1,5.453-.006,3.827,3.827,0,0,1,1.066,2.831v.9a3.729,3.729,0,0,1-1.06,2.736,3.647,3.647,0,0,1-2.71,1.073,3.735,3.735,0,0,1-2.729-1.06,3.78,3.78,0,0,1-1.079-2.825Zm1.752.985a2.421,2.421,0,0,0,.559,1.648,1.885,1.885,0,0,0,1.5.643,1.835,1.835,0,0,0,1.46-.63A2.524,2.524,0,0,0,79.65,21.4V20.46a2.414,2.414,0,0,0-.552-1.641,2.029,2.029,0,0,0-2.945-.006,2.45,2.45,0,0,0-.565,1.7ZM69.177,23.6l-1.333-.838L76.87,8.318l1.333.838Z" transform="translate(23.625 474)" fill="#bbb"/><path d="M10.537,16.875a5.747,5.747,0,0,1-1.758,1.409,4.77,4.77,0,0,1-2.241.533,4.925,4.925,0,0,1-2.787-.787,5.117,5.117,0,0,1-1.834-2.215A7.552,7.552,0,0,1,1.27,12.66a7.7,7.7,0,0,1,.7-3.339,5.176,5.176,0,0,1,2-2.272A5.7,5.7,0,0,1,7,6.262a5.162,5.162,0,0,1,4.323,2.05A8.943,8.943,0,0,1,12.9,13.9v.686q0,5.4-2.133,7.877T4.329,25.013H3.872V23.02h.5a6.466,6.466,0,0,0,4.469-1.514A6.5,6.5,0,0,0,10.537,16.875Zm-3.618,0A3.627,3.627,0,0,0,9.1,16.151a4.266,4.266,0,0,0,1.454-1.79v-.939a6.463,6.463,0,0,0-1-3.758A3.066,3.066,0,0,0,4.52,9.4a4.9,4.9,0,0,0-.939,3.129,5.1,5.1,0,0,0,.908,3.117A2.874,2.874,0,0,0,6.919,16.875Zm10.3-1.143.939-9.217h9.471V8.687H20.147l-.559,5.04a5.965,5.965,0,0,1,3.085-.8A5.1,5.1,0,0,1,26.686,14.6a6.543,6.543,0,0,1,1.485,4.513,6.315,6.315,0,0,1-1.542,4.5,5.622,5.622,0,0,1-4.31,1.644,5.843,5.843,0,0,1-4-1.358,5.422,5.422,0,0,1-1.765-3.758h2.222a3.73,3.73,0,0,0,1.13,2.393,3.513,3.513,0,0,0,2.412.806,3.169,3.169,0,0,0,2.571-1.117,4.67,4.67,0,0,0,.933-3.085,4.287,4.287,0,0,0-1.009-2.977,3.433,3.433,0,0,0-2.685-1.124,3.872,3.872,0,0,0-2.412.673l-.622.508ZM30.9,28.682l-1.333-.914a6.126,6.126,0,0,0,1.244-3.428V22.22h2.3v1.841a5.783,5.783,0,0,1-.628,2.564A6,6,0,0,1,30.9,28.682ZM47.43,17.116q0,4.126-1.409,6.132a5.012,5.012,0,0,1-4.405,2.006,5.048,5.048,0,0,1-4.38-1.961,10.2,10.2,0,0,1-1.473-5.859V14.3q0-4.075,1.409-6.056a5.05,5.05,0,0,1,4.418-1.98,5.1,5.1,0,0,1,4.393,1.911q1.409,1.911,1.447,5.9ZM45.081,13.9a8.606,8.606,0,0,0-.838-4.348A2.884,2.884,0,0,0,41.59,8.191,2.846,2.846,0,0,0,38.962,9.55a8.4,8.4,0,0,0-.851,4.177v3.758a8.744,8.744,0,0,0,.87,4.424,2.879,2.879,0,0,0,2.634,1.428A2.839,2.839,0,0,0,44.2,21.991a8.428,8.428,0,0,0,.882-4.24Zm5.154-3.834A3.751,3.751,0,0,1,51.3,7.328a3.983,3.983,0,0,1,5.459.006A3.881,3.881,0,0,1,57.8,10.146v.9a3.7,3.7,0,0,1-1.06,2.736,3.654,3.654,0,0,1-2.7,1.06,3.735,3.735,0,0,1-2.729-1.06,3.78,3.78,0,0,1-1.079-2.825Zm1.752.972a2.4,2.4,0,0,0,.559,1.635,1.885,1.885,0,0,0,1.5.643A1.848,1.848,0,0,0,55.5,12.7a2.481,2.481,0,0,0,.552-1.705v-.929A2.462,2.462,0,0,0,55.5,8.421a2.024,2.024,0,0,0-2.971,0,2.54,2.54,0,0,0-.546,1.692Zm7.249,9.425a3.729,3.729,0,0,1,1.06-2.736,4.009,4.009,0,0,1,5.453-.006,3.827,3.827,0,0,1,1.066,2.831v.9a3.729,3.729,0,0,1-1.06,2.736,3.647,3.647,0,0,1-2.71,1.073,3.735,3.735,0,0,1-2.729-1.06,3.78,3.78,0,0,1-1.079-2.825Zm1.752.985a2.421,2.421,0,0,0,.559,1.648,1.885,1.885,0,0,0,1.5.643,1.835,1.835,0,0,0,1.46-.63,2.524,2.524,0,0,0,.546-1.711V20.46a2.414,2.414,0,0,0-.552-1.641,2.029,2.029,0,0,0-2.945-.006,2.45,2.45,0,0,0-.565,1.7ZM54.577,23.6l-1.333-.838L62.271,8.318l1.333.838Z" transform="translate(35.625 614)" fill="#bbb"/><path d="M10.537,16.875a5.747,5.747,0,0,1-1.758,1.409,4.77,4.77,0,0,1-2.241.533,4.925,4.925,0,0,1-2.787-.787,5.117,5.117,0,0,1-1.834-2.215A7.552,7.552,0,0,1,1.27,12.66a7.7,7.7,0,0,1,.7-3.339,5.176,5.176,0,0,1,2-2.272A5.7,5.7,0,0,1,7,6.262a5.162,5.162,0,0,1,4.323,2.05A8.943,8.943,0,0,1,12.9,13.9v.686q0,5.4-2.133,7.877T4.329,25.013H3.872V23.02h.5a6.466,6.466,0,0,0,4.469-1.514A6.5,6.5,0,0,0,10.537,16.875Zm-3.618,0A3.627,3.627,0,0,0,9.1,16.151a4.266,4.266,0,0,0,1.454-1.79v-.939a6.463,6.463,0,0,0-1-3.758A3.066,3.066,0,0,0,4.52,9.4a4.9,4.9,0,0,0-.939,3.129,5.1,5.1,0,0,0,.908,3.117A2.874,2.874,0,0,0,6.919,16.875Zm20.808.241q0,4.126-1.409,6.132a5.012,5.012,0,0,1-4.405,2.006,5.048,5.048,0,0,1-4.38-1.961,10.2,10.2,0,0,1-1.473-5.859V14.3q0-4.075,1.409-6.056a5.05,5.05,0,0,1,4.418-1.98,5.1,5.1,0,0,1,4.393,1.911q1.409,1.911,1.447,5.9ZM25.378,13.9a8.606,8.606,0,0,0-.838-4.348,2.884,2.884,0,0,0-2.653-1.365A2.846,2.846,0,0,0,19.259,9.55a8.4,8.4,0,0,0-.851,4.177v3.758a8.744,8.744,0,0,0,.87,4.424,2.879,2.879,0,0,0,2.634,1.428A2.839,2.839,0,0,0,24.5,21.991a8.428,8.428,0,0,0,.882-4.24ZM30.9,28.682l-1.333-.914a6.126,6.126,0,0,0,1.244-3.428V22.22h2.3v1.841a5.783,5.783,0,0,1-.628,2.564A6,6,0,0,1,30.9,28.682ZM47.43,17.116q0,4.126-1.409,6.132a5.012,5.012,0,0,1-4.405,2.006,5.048,5.048,0,0,1-4.38-1.961,10.2,10.2,0,0,1-1.473-5.859V14.3q0-4.075,1.409-6.056a5.05,5.05,0,0,1,4.418-1.98,5.1,5.1,0,0,1,4.393,1.911q1.409,1.911,1.447,5.9ZM45.081,13.9a8.606,8.606,0,0,0-.838-4.348A2.884,2.884,0,0,0,41.59,8.191,2.846,2.846,0,0,0,38.962,9.55a8.4,8.4,0,0,0-.851,4.177v3.758a8.744,8.744,0,0,0,.87,4.424,2.879,2.879,0,0,0,2.634,1.428A2.839,2.839,0,0,0,44.2,21.991a8.428,8.428,0,0,0,.882-4.24Zm5.154-3.834A3.751,3.751,0,0,1,51.3,7.328a3.983,3.983,0,0,1,5.459.006A3.881,3.881,0,0,1,57.8,10.146v.9a3.7,3.7,0,0,1-1.06,2.736,3.654,3.654,0,0,1-2.7,1.06,3.735,3.735,0,0,1-2.729-1.06,3.78,3.78,0,0,1-1.079-2.825Zm1.752.972a2.4,2.4,0,0,0,.559,1.635,1.885,1.885,0,0,0,1.5.643A1.848,1.848,0,0,0,55.5,12.7a2.481,2.481,0,0,0,.552-1.705v-.929A2.462,2.462,0,0,0,55.5,8.421a2.024,2.024,0,0,0-2.971,0,2.54,2.54,0,0,0-.546,1.692Zm7.249,9.425a3.729,3.729,0,0,1,1.06-2.736,4.009,4.009,0,0,1,5.453-.006,3.827,3.827,0,0,1,1.066,2.831v.9a3.729,3.729,0,0,1-1.06,2.736,3.647,3.647,0,0,1-2.71,1.073,3.735,3.735,0,0,1-2.729-1.06,3.78,3.78,0,0,1-1.079-2.825Zm1.752.985a2.421,2.421,0,0,0,.559,1.648,1.885,1.885,0,0,0,1.5.643,1.835,1.835,0,0,0,1.46-.63,2.524,2.524,0,0,0,.546-1.711V20.46a2.414,2.414,0,0,0-.552-1.641,2.029,2.029,0,0,0-2.945-.006,2.45,2.45,0,0,0-.565,1.7ZM54.577,23.6l-1.333-.838L62.271,8.318l1.333.838Z" transform="translate(35.625 754)" fill="#bbb"/><path d="M9.255,25H6.894V9.347L2.158,11.086V8.953L8.887,6.427h.368Zm18.472-7.884q0,4.126-1.409,6.132a5.012,5.012,0,0,1-4.405,2.006,5.048,5.048,0,0,1-4.38-1.961,10.2,10.2,0,0,1-1.473-5.859V14.3q0-4.075,1.409-6.056a5.05,5.05,0,0,1,4.418-1.98,5.1,5.1,0,0,1,4.393,1.911q1.409,1.911,1.447,5.9ZM25.378,13.9a8.606,8.606,0,0,0-.838-4.348,2.884,2.884,0,0,0-2.653-1.365A2.846,2.846,0,0,0,19.259,9.55a8.4,8.4,0,0,0-.851,4.177v3.758a8.744,8.744,0,0,0,.87,4.424,2.879,2.879,0,0,0,2.634,1.428A2.839,2.839,0,0,0,24.5,21.991a8.428,8.428,0,0,0,.882-4.24Zm6.437,1.828.939-9.217h9.471V8.687H34.747l-.559,5.04a5.965,5.965,0,0,1,3.085-.8A5.1,5.1,0,0,1,41.285,14.6a6.543,6.543,0,0,1,1.485,4.513,6.315,6.315,0,0,1-1.542,4.5,5.622,5.622,0,0,1-4.31,1.644,5.843,5.843,0,0,1-4-1.358,5.422,5.422,0,0,1-1.765-3.758h2.222a3.73,3.73,0,0,0,1.13,2.393,3.513,3.513,0,0,0,2.412.806,3.169,3.169,0,0,0,2.571-1.117,4.67,4.67,0,0,0,.933-3.085,4.287,4.287,0,0,0-1.009-2.977,3.433,3.433,0,0,0-2.685-1.124,3.872,3.872,0,0,0-2.412.673l-.622.508ZM45.5,28.682l-1.333-.914a6.126,6.126,0,0,0,1.244-3.428V22.22h2.3v1.841a5.783,5.783,0,0,1-.628,2.564A6,6,0,0,1,45.5,28.682ZM62.029,17.116q0,4.126-1.409,6.132a5.012,5.012,0,0,1-4.405,2.006,5.048,5.048,0,0,1-4.38-1.961,10.2,10.2,0,0,1-1.473-5.859V14.3q0-4.075,1.409-6.056a5.05,5.05,0,0,1,4.418-1.98,5.1,5.1,0,0,1,4.393,1.911q1.409,1.911,1.447,5.9ZM59.681,13.9a8.606,8.606,0,0,0-.838-4.348,2.884,2.884,0,0,0-2.653-1.365A2.846,2.846,0,0,0,53.562,9.55a8.4,8.4,0,0,0-.851,4.177v3.758a8.744,8.744,0,0,0,.87,4.424,2.879,2.879,0,0,0,2.634,1.428A2.839,2.839,0,0,0,58.8,21.991a8.428,8.428,0,0,0,.882-4.24Zm5.154-3.834A3.751,3.751,0,0,1,65.9,7.328a3.983,3.983,0,0,1,5.459.006A3.881,3.881,0,0,1,72.4,10.146v.9a3.7,3.7,0,0,1-1.06,2.736,3.654,3.654,0,0,1-2.7,1.06,3.735,3.735,0,0,1-2.729-1.06,3.78,3.78,0,0,1-1.079-2.825Zm1.752.972a2.4,2.4,0,0,0,.559,1.635,1.885,1.885,0,0,0,1.5.643A1.848,1.848,0,0,0,70.1,12.7a2.481,2.481,0,0,0,.552-1.705v-.929A2.462,2.462,0,0,0,70.1,8.421a2.024,2.024,0,0,0-2.971,0,2.54,2.54,0,0,0-.546,1.692Zm7.249,9.425a3.729,3.729,0,0,1,1.06-2.736,4.009,4.009,0,0,1,5.453-.006,3.827,3.827,0,0,1,1.066,2.831v.9a3.729,3.729,0,0,1-1.06,2.736,3.647,3.647,0,0,1-2.71,1.073,3.735,3.735,0,0,1-2.729-1.06,3.78,3.78,0,0,1-1.079-2.825Zm1.752.985a2.421,2.421,0,0,0,.559,1.648,1.885,1.885,0,0,0,1.5.643,1.835,1.835,0,0,0,1.46-.63A2.524,2.524,0,0,0,79.65,21.4V20.46a2.414,2.414,0,0,0-.552-1.641,2.029,2.029,0,0,0-2.945-.006,2.45,2.45,0,0,0-.565,1.7ZM69.177,23.6l-1.333-.838L76.87,8.318l1.333.838Z" transform="translate(23.625 324)" fill="#bbb"/><path d="M9.255,25H6.894V9.347L2.158,11.086V8.953L8.887,6.427h.368Zm14.6,0H21.493V9.347l-4.735,1.739V8.953l6.729-2.526h.368Zm18.472-7.884q0,4.126-1.409,6.132a5.012,5.012,0,0,1-4.405,2.006,5.048,5.048,0,0,1-4.38-1.961,10.2,10.2,0,0,1-1.473-5.859V14.3q0-4.075,1.409-6.056a5.05,5.05,0,0,1,4.418-1.98,5.1,5.1,0,0,1,4.393,1.911q1.409,1.911,1.447,5.9ZM39.978,13.9a8.606,8.606,0,0,0-.838-4.348,2.884,2.884,0,0,0-2.653-1.365A2.846,2.846,0,0,0,33.858,9.55a8.4,8.4,0,0,0-.851,4.177v3.758a8.744,8.744,0,0,0,.87,4.424,2.879,2.879,0,0,0,2.634,1.428A2.839,2.839,0,0,0,39.1,21.991a8.428,8.428,0,0,0,.882-4.24ZM45.5,28.682l-1.333-.914a6.126,6.126,0,0,0,1.244-3.428V22.22h2.3v1.841a5.783,5.783,0,0,1-.628,2.564A6,6,0,0,1,45.5,28.682ZM62.029,17.116q0,4.126-1.409,6.132a5.012,5.012,0,0,1-4.405,2.006,5.048,5.048,0,0,1-4.38-1.961,10.2,10.2,0,0,1-1.473-5.859V14.3q0-4.075,1.409-6.056a5.05,5.05,0,0,1,4.418-1.98,5.1,5.1,0,0,1,4.393,1.911q1.409,1.911,1.447,5.9ZM59.681,13.9a8.606,8.606,0,0,0-.838-4.348,2.884,2.884,0,0,0-2.653-1.365A2.846,2.846,0,0,0,53.562,9.55a8.4,8.4,0,0,0-.851,4.177v3.758a8.744,8.744,0,0,0,.87,4.424,2.879,2.879,0,0,0,2.634,1.428A2.839,2.839,0,0,0,58.8,21.991a8.428,8.428,0,0,0,.882-4.24Zm5.154-3.834A3.751,3.751,0,0,1,65.9,7.328a3.983,3.983,0,0,1,5.459.006A3.881,3.881,0,0,1,72.4,10.146v.9a3.7,3.7,0,0,1-1.06,2.736,3.654,3.654,0,0,1-2.7,1.06,3.735,3.735,0,0,1-2.729-1.06,3.78,3.78,0,0,1-1.079-2.825Zm1.752.972a2.4,2.4,0,0,0,.559,1.635,1.885,1.885,0,0,0,1.5.643A1.848,1.848,0,0,0,70.1,12.7a2.481,2.481,0,0,0,.552-1.705v-.929A2.462,2.462,0,0,0,70.1,8.421a2.024,2.024,0,0,0-2.971,0,2.54,2.54,0,0,0-.546,1.692Zm7.249,9.425a3.729,3.729,0,0,1,1.06-2.736,4.009,4.009,0,0,1,5.453-.006,3.827,3.827,0,0,1,1.066,2.831v.9a3.729,3.729,0,0,1-1.06,2.736,3.647,3.647,0,0,1-2.71,1.073,3.735,3.735,0,0,1-2.729-1.06,3.78,3.78,0,0,1-1.079-2.825Zm1.752.985a2.421,2.421,0,0,0,.559,1.648,1.885,1.885,0,0,0,1.5.643,1.835,1.835,0,0,0,1.46-.63A2.524,2.524,0,0,0,79.65,21.4V20.46a2.414,2.414,0,0,0-.552-1.641,2.029,2.029,0,0,0-2.945-.006,2.45,2.45,0,0,0-.565,1.7ZM69.177,23.6l-1.333-.838L76.87,8.318l1.333.838Z" transform="translate(23.625 174)" fill="#bbb"/><path d="M7.008,15.395A10.58,10.58,0,0,1,2.795,13.35a3.907,3.907,0,0,1-1.318-2.994A4.127,4.127,0,0,1,3.088,7.021,6.4,6.4,0,0,1,7.277,5.7a6.99,6.99,0,0,1,3.135.68,5.154,5.154,0,0,1,2.133,1.875,4.8,4.8,0,0,1,.756,2.613H11.039a3.12,3.12,0,0,0-.984-2.44,4,4,0,0,0-2.777-.888,4.1,4.1,0,0,0-2.6.734,2.448,2.448,0,0,0-.932,2.037,2.2,2.2,0,0,0,.885,1.767A8.678,8.678,0,0,0,7.646,13.4a13.974,13.974,0,0,1,3.328,1.319A5.05,5.05,0,0,1,12.756,16.4a4.292,4.292,0,0,1,.58,2.262,3.987,3.987,0,0,1-1.617,3.322,6.9,6.9,0,0,1-4.324,1.248,8.02,8.02,0,0,1-3.281-.674,5.522,5.522,0,0,1-2.35-1.846,4.5,4.5,0,0,1-.826-2.66H3.2A2.939,2.939,0,0,0,4.342,20.5a4.811,4.811,0,0,0,3.053.9,4.423,4.423,0,0,0,2.73-.727,2.36,2.36,0,0,0,.949-1.98,2.317,2.317,0,0,0-.879-1.939A10.133,10.133,0,0,0,7.008,15.395Zm13.957,6.07a3.123,3.123,0,0,0,2.027-.7A2.474,2.474,0,0,0,23.953,19H26a3.931,3.931,0,0,1-.75,2.074,4.94,4.94,0,0,1-1.846,1.57,5.326,5.326,0,0,1-2.443.586,5.223,5.223,0,0,1-4.119-1.729,6.884,6.884,0,0,1-1.529-4.729v-.363A7.634,7.634,0,0,1,16,13.121a5.177,5.177,0,0,1,1.951-2.238,5.543,5.543,0,0,1,3.006-.8A5.085,5.085,0,0,1,24.5,11.363,4.565,4.565,0,0,1,26,14.68H23.953a2.988,2.988,0,0,0-.932-2.021,2.9,2.9,0,0,0-2.068-.791,3.034,3.034,0,0,0-2.561,1.189,5.586,5.586,0,0,0-.908,3.439v.41a5.475,5.475,0,0,0,.9,3.375A3.049,3.049,0,0,0,20.965,21.465Zm9.645-9.609a4.609,4.609,0,0,1,3.75-1.77q4.02,0,4.055,4.535V23H36.246V14.609a2.919,2.919,0,0,0-.627-2.027,2.512,2.512,0,0,0-1.916-.656,3.129,3.129,0,0,0-1.852.563,3.82,3.82,0,0,0-1.242,1.477V23H28.441V5h2.168ZM44.016,23H41.848V5h2.168Zm8.73.234a5.54,5.54,0,0,1-4.2-1.693,6.285,6.285,0,0,1-1.617-4.529v-.4a7.609,7.609,0,0,1,.721-3.369,5.622,5.622,0,0,1,2.016-2.32,5.068,5.068,0,0,1,2.807-.838,4.749,4.749,0,0,1,3.844,1.629,7.053,7.053,0,0,1,1.371,4.664v.9H49.1a4.507,4.507,0,0,0,1.1,3.029,3.444,3.444,0,0,0,2.666,1.154A3.776,3.776,0,0,0,54.809,21,4.888,4.888,0,0,0,56.2,19.754l1.324,1.031A5.325,5.325,0,0,1,52.746,23.234Zm-.27-11.367a2.892,2.892,0,0,0-2.2.955,4.642,4.642,0,0,0-1.1,2.678h6.352v-.164a4.129,4.129,0,0,0-.891-2.561A2.723,2.723,0,0,0,52.477,11.867Zm12.809,9.6a3.123,3.123,0,0,0,2.027-.7A2.474,2.474,0,0,0,68.273,19h2.051a3.931,3.931,0,0,1-.75,2.074,4.94,4.94,0,0,1-1.846,1.57,5.326,5.326,0,0,1-2.443.586,5.223,5.223,0,0,1-4.119-1.729,6.884,6.884,0,0,1-1.529-4.729v-.363a7.634,7.634,0,0,1,.68-3.293,5.177,5.177,0,0,1,1.951-2.238,5.543,5.543,0,0,1,3.006-.8,5.085,5.085,0,0,1,3.545,1.277,4.565,4.565,0,0,1,1.506,3.316H68.273a2.988,2.988,0,0,0-.932-2.021,2.9,2.9,0,0,0-2.068-.791,3.034,3.034,0,0,0-2.561,1.189A5.586,5.586,0,0,0,61.8,16.5v.41a5.475,5.475,0,0,0,.9,3.375A3.049,3.049,0,0,0,65.285,21.465Zm9.645-9.609a4.609,4.609,0,0,1,3.75-1.77q4.02,0,4.055,4.535V23H80.566V14.609a2.919,2.919,0,0,0-.627-2.027,2.512,2.512,0,0,0-1.916-.656,3.129,3.129,0,0,0-1.852.563,3.82,3.82,0,0,0-1.242,1.477V23H72.762V5H74.93ZM88.922,7.25v3.07h2.367V12H88.922v7.873a1.76,1.76,0,0,0,.316,1.144,1.332,1.332,0,0,0,1.078.381,5.249,5.249,0,0,0,1.031-.141V23a6.322,6.322,0,0,1-1.664.233,2.7,2.7,0,0,1-2.191-.879,3.776,3.776,0,0,1-.738-2.5V12H84.445V10.32h2.309V7.25Zm10.16,15.984a5.54,5.54,0,0,1-4.2-1.693,6.285,6.285,0,0,1-1.617-4.529v-.4a7.609,7.609,0,0,1,.721-3.369,5.622,5.622,0,0,1,2.016-2.32,5.068,5.068,0,0,1,2.807-.838,4.749,4.749,0,0,1,3.844,1.629,7.053,7.053,0,0,1,1.371,4.664v.9h-8.59a4.507,4.507,0,0,0,1.1,3.029A3.444,3.444,0,0,0,99.2,21.465,3.776,3.776,0,0,0,101.145,21a4.888,4.888,0,0,0,1.395-1.242l1.324,1.031A5.325,5.325,0,0,1,99.082,23.234Zm-.27-11.367a2.892,2.892,0,0,0-2.2.955,4.642,4.642,0,0,0-1.1,2.678h6.352v-.164a4.129,4.129,0,0,0-.891-2.561A2.723,2.723,0,0,0,98.813,11.867Zm14,11.133V5.938h4.816a7.753,7.753,0,0,1,3.938.984,6.658,6.658,0,0,1,2.643,2.8,9.116,9.116,0,0,1,.943,4.172v1.09a9.148,9.148,0,0,1-.932,4.23A6.553,6.553,0,0,1,121.564,22a8.247,8.247,0,0,1-4.025,1Zm2.25-15.223V21.16h2.367a5.15,5.15,0,0,0,4.049-1.619,6.687,6.687,0,0,0,1.447-4.61v-1a6.793,6.793,0,0,0-1.365-4.521,4.858,4.858,0,0,0-3.873-1.636Zm12.574,8.766a7.489,7.489,0,0,1,.732-3.352,5.464,5.464,0,0,1,2.039-2.3,5.551,5.551,0,0,1,2.982-.809,5.347,5.347,0,0,1,4.189,1.793,6.9,6.9,0,0,1,1.6,4.77V16.8a7.555,7.555,0,0,1-.709,3.322,5.383,5.383,0,0,1-2.027,2.291,5.614,5.614,0,0,1-3.029.82,5.334,5.334,0,0,1-4.178-1.793,6.863,6.863,0,0,1-1.6-4.746Zm2.18.258a5.424,5.424,0,0,0,.979,3.387,3.316,3.316,0,0,0,5.244-.018,5.932,5.932,0,0,0,.973-3.627,5.415,5.415,0,0,0-.99-3.381,3.148,3.148,0,0,0-2.631-1.295,3.113,3.113,0,0,0-2.59,1.277A5.888,5.888,0,0,0,129.82,16.8Zm14.121-6.48L144,11.727a4.683,4.683,0,0,1,3.762-1.641,3.625,3.625,0,0,1,3.621,2.039,4.8,4.8,0,0,1,1.646-1.477,4.863,4.863,0,0,1,2.4-.562q4.172,0,4.242,4.418V23H157.5V14.633a2.911,2.911,0,0,0-.621-2.033,2.735,2.735,0,0,0-2.086-.674,2.875,2.875,0,0,0-2,.721,2.924,2.924,0,0,0-.926,1.939V23h-2.18V14.691q0-2.766-2.707-2.766a2.9,2.9,0,0,0-2.918,1.816V23h-2.168V10.32ZM170.766,23a4.554,4.554,0,0,1-.3-1.336,4.837,4.837,0,0,1-3.609,1.57,4.476,4.476,0,0,1-3.076-1.061,3.431,3.431,0,0,1-1.2-2.689,3.584,3.584,0,0,1,1.506-3.076,7.1,7.1,0,0,1,4.236-1.1h2.109v-1a2.435,2.435,0,0,0-.68-1.811,2.732,2.732,0,0,0-2-.674,3.161,3.161,0,0,0-1.945.586,1.727,1.727,0,0,0-.785,1.418h-2.18A2.992,2.992,0,0,1,163.506,12a4.6,4.6,0,0,1,1.828-1.4,6.15,6.15,0,0,1,2.537-.516,5.013,5.013,0,0,1,3.434,1.1,3.953,3.953,0,0,1,1.289,3.018v5.836a7.135,7.135,0,0,0,.445,2.777V23Zm-3.6-1.652a3.81,3.81,0,0,0,1.934-.527,3.19,3.19,0,0,0,1.324-1.371v-2.6h-1.7q-3.984,0-3.984,2.332a1.974,1.974,0,0,0,.68,1.594A2.612,2.612,0,0,0,167.168,21.348ZM178.348,23H176.18V10.32h2.168ZM176,6.957a1.294,1.294,0,0,1,.322-.891,1.21,1.21,0,0,1,.955-.363,1.229,1.229,0,0,1,.961.363,1.28,1.28,0,0,1,.328.891,1.238,1.238,0,0,1-.328.879,1.251,1.251,0,0,1-.961.352,1.232,1.232,0,0,1-.955-.352A1.251,1.251,0,0,1,176,6.957Zm7.863,3.363.07,1.594a4.621,4.621,0,0,1,3.8-1.828q4.02,0,4.055,4.535V23h-2.168V14.609a2.919,2.919,0,0,0-.627-2.027,2.512,2.512,0,0,0-1.916-.656,3.129,3.129,0,0,0-1.852.563,3.82,3.82,0,0,0-1.242,1.477V23h-2.168V10.32Zm18.574,9.316a1.6,1.6,0,0,0-.662-1.365,6.373,6.373,0,0,0-2.309-.838,10.915,10.915,0,0,1-2.613-.844,3.718,3.718,0,0,1-1.43-1.172,2.8,2.8,0,0,1-.463-1.617,3.289,3.289,0,0,1,1.318-2.637,5.149,5.149,0,0,1,3.369-1.078,5.3,5.3,0,0,1,3.5,1.113,3.536,3.536,0,0,1,1.342,2.848h-2.18a1.957,1.957,0,0,0-.756-1.535,2.832,2.832,0,0,0-1.9-.645,2.964,2.964,0,0,0-1.852.516,1.623,1.623,0,0,0-.668,1.348,1.315,1.315,0,0,0,.621,1.184,7.642,7.642,0,0,0,2.244.762,11.693,11.693,0,0,1,2.631.867,3.838,3.838,0,0,1,1.494,1.213,2.982,2.982,0,0,1,.486,1.729,3.245,3.245,0,0,1-1.359,2.725,5.7,5.7,0,0,1-3.527,1.025,6.385,6.385,0,0,1-2.7-.539,4.384,4.384,0,0,1-1.834-1.506,3.629,3.629,0,0,1-.662-2.092H196.7a2.245,2.245,0,0,0,.873,1.729,3.387,3.387,0,0,0,2.15.639,3.5,3.5,0,0,0,1.975-.5A1.53,1.53,0,0,0,202.441,19.637Z" transform="translate(616 973)" fill="#111"/><path d="M11.4,18.535H4.254L2.648,23H.328L6.844,5.938H8.813L15.34,23H13.031ZM4.934,16.7h5.8L7.828,8.715ZM19.652,23H17.484V5h2.168Zm5.824,0H23.309V5h2.168Zm8.73.234a5.54,5.54,0,0,1-4.2-1.693,6.285,6.285,0,0,1-1.617-4.529v-.4a7.609,7.609,0,0,1,.721-3.369,5.622,5.622,0,0,1,2.016-2.32,5.068,5.068,0,0,1,2.807-.838,4.749,4.749,0,0,1,3.844,1.629,7.053,7.053,0,0,1,1.371,4.664v.9h-8.59a4.507,4.507,0,0,0,1.1,3.029,3.444,3.444,0,0,0,2.666,1.154A3.776,3.776,0,0,0,36.27,21a4.888,4.888,0,0,0,1.395-1.242l1.324,1.031A5.325,5.325,0,0,1,34.207,23.234Zm-.27-11.367a2.892,2.892,0,0,0-2.2.955,4.642,4.642,0,0,0-1.1,2.678h6.352v-.164a4.129,4.129,0,0,0-.891-2.561A2.723,2.723,0,0,0,33.938,11.867ZM47.941,23V5.938h4.816a7.753,7.753,0,0,1,3.938.984,6.658,6.658,0,0,1,2.643,2.8,9.116,9.116,0,0,1,.943,4.172v1.09a9.148,9.148,0,0,1-.932,4.23A6.553,6.553,0,0,1,56.689,22a8.247,8.247,0,0,1-4.025,1Zm2.25-15.223V21.16h2.367a5.15,5.15,0,0,0,4.049-1.619,6.687,6.687,0,0,0,1.447-4.61v-1a6.793,6.793,0,0,0-1.365-4.521,4.858,4.858,0,0,0-3.873-1.636Zm12.574,8.766a7.489,7.489,0,0,1,.732-3.352,5.464,5.464,0,0,1,2.039-2.3,5.551,5.551,0,0,1,2.982-.809,5.347,5.347,0,0,1,4.189,1.793,6.9,6.9,0,0,1,1.6,4.77V16.8a7.555,7.555,0,0,1-.709,3.322,5.383,5.383,0,0,1-2.027,2.291,5.614,5.614,0,0,1-3.029.82,5.334,5.334,0,0,1-4.178-1.793,6.863,6.863,0,0,1-1.6-4.746Zm2.18.258a5.424,5.424,0,0,0,.979,3.387,3.316,3.316,0,0,0,5.244-.018,5.932,5.932,0,0,0,.973-3.627,5.415,5.415,0,0,0-.99-3.381,3.148,3.148,0,0,0-2.631-1.295,3.113,3.113,0,0,0-2.59,1.277A5.888,5.888,0,0,0,64.945,16.8Zm14.121-6.48.059,1.406a4.683,4.683,0,0,1,3.762-1.641,3.625,3.625,0,0,1,3.621,2.039,4.8,4.8,0,0,1,1.646-1.477,4.863,4.863,0,0,1,2.4-.562q4.172,0,4.242,4.418V23H92.625V14.633A2.911,2.911,0,0,0,92,12.6a2.735,2.735,0,0,0-2.086-.674,2.875,2.875,0,0,0-2,.721,2.924,2.924,0,0,0-.926,1.939V23h-2.18V14.691q0-2.766-2.707-2.766a2.9,2.9,0,0,0-2.918,1.816V23H77.016V10.32ZM105.891,23a4.554,4.554,0,0,1-.3-1.336,4.837,4.837,0,0,1-3.609,1.57A4.476,4.476,0,0,1,98.9,22.174a3.431,3.431,0,0,1-1.2-2.689,3.584,3.584,0,0,1,1.506-3.076,7.1,7.1,0,0,1,4.236-1.1h2.109v-1a2.435,2.435,0,0,0-.68-1.811,2.732,2.732,0,0,0-2-.674,3.161,3.161,0,0,0-1.945.586,1.727,1.727,0,0,0-.785,1.418h-2.18A2.992,2.992,0,0,1,98.631,12a4.6,4.6,0,0,1,1.828-1.4A6.15,6.15,0,0,1,103,10.086a5.013,5.013,0,0,1,3.434,1.1,3.953,3.953,0,0,1,1.289,3.018v5.836a7.135,7.135,0,0,0,.445,2.777V23Zm-3.6-1.652a3.81,3.81,0,0,0,1.934-.527,3.19,3.19,0,0,0,1.324-1.371v-2.6h-1.7q-3.984,0-3.984,2.332a1.974,1.974,0,0,0,.68,1.594A2.612,2.612,0,0,0,102.293,21.348ZM113.473,23H111.3V10.32h2.168ZM111.129,6.957a1.294,1.294,0,0,1,.322-.891,1.21,1.21,0,0,1,.955-.363,1.229,1.229,0,0,1,.961.363,1.28,1.28,0,0,1,.328.891,1.238,1.238,0,0,1-.328.879,1.251,1.251,0,0,1-.961.352,1.232,1.232,0,0,1-.955-.352A1.251,1.251,0,0,1,111.129,6.957Zm7.863,3.363.07,1.594a4.621,4.621,0,0,1,3.8-1.828q4.02,0,4.055,4.535V23h-2.168V14.609a2.919,2.919,0,0,0-.627-2.027,2.512,2.512,0,0,0-1.916-.656,3.129,3.129,0,0,0-1.852.563,3.82,3.82,0,0,0-1.242,1.477V23h-2.168V10.32Zm18.574,9.316a1.6,1.6,0,0,0-.662-1.365,6.373,6.373,0,0,0-2.309-.838,10.915,10.915,0,0,1-2.613-.844,3.718,3.718,0,0,1-1.43-1.172,2.8,2.8,0,0,1-.463-1.617,3.289,3.289,0,0,1,1.318-2.637,5.149,5.149,0,0,1,3.369-1.078,5.3,5.3,0,0,1,3.5,1.113,3.536,3.536,0,0,1,1.342,2.848h-2.18a1.957,1.957,0,0,0-.756-1.535,2.832,2.832,0,0,0-1.9-.645,2.964,2.964,0,0,0-1.852.516,1.623,1.623,0,0,0-.668,1.348,1.315,1.315,0,0,0,.621,1.184,7.642,7.642,0,0,0,2.244.762,11.693,11.693,0,0,1,2.631.867,3.838,3.838,0,0,1,1.494,1.213,2.982,2.982,0,0,1,.486,1.729,3.245,3.245,0,0,1-1.359,2.725,5.7,5.7,0,0,1-3.527,1.025,6.385,6.385,0,0,1-2.7-.539,4.384,4.384,0,0,1-1.834-1.506,3.629,3.629,0,0,1-.662-2.092h2.168a2.245,2.245,0,0,0,.873,1.729,3.387,3.387,0,0,0,2.15.639,3.5,3.5,0,0,0,1.975-.5A1.53,1.53,0,0,0,137.566,19.637Z" transform="translate(86 973)" fill="#111"/><path d="M14.578,20.762a5.2,5.2,0,0,1-2.42,1.857,9.775,9.775,0,0,1-3.615.615,7.011,7.011,0,0,1-3.7-.979,6.519,6.519,0,0,1-2.5-2.783,9.613,9.613,0,0,1-.908-4.184V13.8a8.973,8.973,0,0,1,1.8-5.977A6.268,6.268,0,0,1,8.285,5.7a6.474,6.474,0,0,1,4.3,1.365,5.947,5.947,0,0,1,1.992,3.873h-2.25A3.72,3.72,0,0,0,8.3,7.543,3.983,3.983,0,0,0,4.869,9.132a7.759,7.759,0,0,0-1.178,4.6v1.4A7.272,7.272,0,0,0,5,19.7a4.254,4.254,0,0,0,3.551,1.695,7.843,7.843,0,0,0,2.215-.281,3.425,3.425,0,0,0,1.57-.947V16.344H8.391V14.5h6.188Zm11.238.984A4.6,4.6,0,0,1,22.1,23.234a3.942,3.942,0,0,1-3.088-1.178,5.1,5.1,0,0,1-1.072-3.486V10.32h2.168v8.191q0,2.883,2.344,2.883a3.245,3.245,0,0,0,3.3-1.852V10.32h2.168V23H25.863ZM34.16,7.25v3.07h2.367V12H34.16v7.873a1.76,1.76,0,0,0,.316,1.144,1.332,1.332,0,0,0,1.078.381,5.249,5.249,0,0,0,1.031-.141V23a6.322,6.322,0,0,1-1.664.233,2.7,2.7,0,0,1-2.191-.879,3.776,3.776,0,0,1-.738-2.5V12H29.684V10.32h2.309V7.25ZM44.32,23.234a5.54,5.54,0,0,1-4.2-1.693,6.285,6.285,0,0,1-1.617-4.529v-.4a7.609,7.609,0,0,1,.721-3.369,5.622,5.622,0,0,1,2.016-2.32,5.068,5.068,0,0,1,2.807-.838,4.749,4.749,0,0,1,3.844,1.629,7.053,7.053,0,0,1,1.371,4.664v.9h-8.59a4.507,4.507,0,0,0,1.1,3.029,3.444,3.444,0,0,0,2.666,1.154A3.776,3.776,0,0,0,46.383,21a4.888,4.888,0,0,0,1.395-1.242L49.1,20.785A5.325,5.325,0,0,1,44.32,23.234Zm-.27-11.367a2.892,2.892,0,0,0-2.2.955,4.642,4.642,0,0,0-1.1,2.678H47.1v-.164a4.129,4.129,0,0,0-.891-2.561A2.723,2.723,0,0,0,44.051,11.867ZM58.055,23V5.938h4.816a7.753,7.753,0,0,1,3.938.984,6.658,6.658,0,0,1,2.643,2.8,9.116,9.116,0,0,1,.943,4.172v1.09a9.148,9.148,0,0,1-.932,4.23A6.553,6.553,0,0,1,66.8,22a8.247,8.247,0,0,1-4.025,1ZM60.3,7.777V21.16h2.367a5.15,5.15,0,0,0,4.049-1.619,6.687,6.687,0,0,0,1.447-4.61v-1A6.793,6.793,0,0,0,66.8,9.414,4.858,4.858,0,0,0,62.93,7.777Zm12.574,8.766a7.489,7.489,0,0,1,.732-3.352,5.464,5.464,0,0,1,2.039-2.3,5.551,5.551,0,0,1,2.982-.809,5.347,5.347,0,0,1,4.189,1.793,6.9,6.9,0,0,1,1.6,4.77V16.8a7.555,7.555,0,0,1-.709,3.322,5.383,5.383,0,0,1-2.027,2.291,5.614,5.614,0,0,1-3.029.82,5.334,5.334,0,0,1-4.178-1.793,6.863,6.863,0,0,1-1.6-4.746Zm2.18.258a5.424,5.424,0,0,0,.979,3.387,3.316,3.316,0,0,0,5.244-.018,5.932,5.932,0,0,0,.973-3.627,5.415,5.415,0,0,0-.99-3.381,3.148,3.148,0,0,0-2.631-1.295,3.113,3.113,0,0,0-2.59,1.277A5.888,5.888,0,0,0,75.059,16.8ZM89.18,10.32l.059,1.406A4.683,4.683,0,0,1,93,10.086a3.625,3.625,0,0,1,3.621,2.039,4.8,4.8,0,0,1,1.646-1.477,4.863,4.863,0,0,1,2.4-.562q4.172,0,4.242,4.418V23h-2.168V14.633a2.911,2.911,0,0,0-.621-2.033,2.735,2.735,0,0,0-2.086-.674,2.875,2.875,0,0,0-2,.721,2.924,2.924,0,0,0-.926,1.939V23h-2.18V14.691q0-2.766-2.707-2.766A2.9,2.9,0,0,0,89.3,13.742V23H87.129V10.32ZM116,23a4.554,4.554,0,0,1-.3-1.336,4.837,4.837,0,0,1-3.609,1.57,4.476,4.476,0,0,1-3.076-1.061,3.431,3.431,0,0,1-1.2-2.689,3.584,3.584,0,0,1,1.506-3.076,7.1,7.1,0,0,1,4.236-1.1h2.109v-1a2.435,2.435,0,0,0-.68-1.811,2.732,2.732,0,0,0-2-.674,3.161,3.161,0,0,0-1.945.586,1.727,1.727,0,0,0-.785,1.418h-2.18A2.992,2.992,0,0,1,108.744,12a4.6,4.6,0,0,1,1.828-1.4,6.15,6.15,0,0,1,2.537-.516,5.013,5.013,0,0,1,3.434,1.1,3.953,3.953,0,0,1,1.289,3.018v5.836a7.135,7.135,0,0,0,.445,2.777V23Zm-3.6-1.652a3.81,3.81,0,0,0,1.934-.527,3.19,3.19,0,0,0,1.324-1.371v-2.6h-1.7q-3.984,0-3.984,2.332a1.974,1.974,0,0,0,.68,1.594A2.612,2.612,0,0,0,112.406,21.348ZM123.586,23h-2.168V10.32h2.168ZM121.242,6.957a1.294,1.294,0,0,1,.322-.891,1.21,1.21,0,0,1,.955-.363,1.229,1.229,0,0,1,.961.363,1.28,1.28,0,0,1,.328.891,1.238,1.238,0,0,1-.328.879,1.251,1.251,0,0,1-.961.352,1.232,1.232,0,0,1-.955-.352A1.251,1.251,0,0,1,121.242,6.957Zm7.863,3.363.07,1.594a4.621,4.621,0,0,1,3.8-1.828q4.02,0,4.055,4.535V23h-2.168V14.609a2.919,2.919,0,0,0-.627-2.027,2.512,2.512,0,0,0-1.916-.656,3.129,3.129,0,0,0-1.852.563,3.82,3.82,0,0,0-1.242,1.477V23h-2.168V10.32Zm18.574,9.316a1.6,1.6,0,0,0-.662-1.365,6.373,6.373,0,0,0-2.309-.838,10.915,10.915,0,0,1-2.613-.844,3.718,3.718,0,0,1-1.43-1.172A2.8,2.8,0,0,1,140.2,13.8a3.289,3.289,0,0,1,1.318-2.637,5.149,5.149,0,0,1,3.369-1.078,5.3,5.3,0,0,1,3.5,1.113,3.536,3.536,0,0,1,1.342,2.848h-2.18a1.957,1.957,0,0,0-.756-1.535,2.832,2.832,0,0,0-1.9-.645,2.964,2.964,0,0,0-1.852.516,1.623,1.623,0,0,0-.668,1.348,1.315,1.315,0,0,0,.621,1.184,7.642,7.642,0,0,0,2.244.762,11.693,11.693,0,0,1,2.631.867,3.838,3.838,0,0,1,1.494,1.213,2.982,2.982,0,0,1,.486,1.729,3.245,3.245,0,0,1-1.359,2.725,5.7,5.7,0,0,1-3.527,1.025,6.385,6.385,0,0,1-2.7-.539,4.384,4.384,0,0,1-1.834-1.506,3.629,3.629,0,0,1-.662-2.092h2.168a2.245,2.245,0,0,0,.873,1.729,3.387,3.387,0,0,0,2.15.639,3.5,3.5,0,0,0,1.975-.5A1.53,1.53,0,0,0,147.68,19.637Z" transform="translate(346 973)" fill="#111"/><path d="M0,0H27" transform="translate(298 988)" fill="none" stroke="#68b300" stroke-linecap="round" stroke-width="8"/><path d="M0,0H27" transform="translate(568 988)" fill="none" stroke="#c02" stroke-linecap="round" stroke-width="8"/><path d="M0,0H27" transform="translate(38 988)" fill="none" stroke="#1269d3" stroke-linecap="round" stroke-width="8"/></g></svg>