<?xml version="1.0" encoding="utf-8"?>
<!-- Generator: Adobe Illustrator 19.1.0, SVG Export Plug-In . SVG Version: 6.00 Build 0)  -->
<svg version="1.1" id="レイヤー_1" xmlns="http://www.w3.org/2000/svg" xmlns:xlink="http://www.w3.org/1999/xlink" x="0px"
	 y="0px" width="51px" height="47px" viewBox="-124 977 51 47" style="enable-background:new -124 977 51 47;" xml:space="preserve"
	>
<style type="text/css">
	.st0{fill:none;}
	.st1{fill:none;stroke:#2D5A9B;}
</style>
<g>
	<path id="path-1" class="st0" d="M-87,1015.3c1,4.5,3.5,8.2,3.5,8.2c-3.6,0-10.5-3.6-14.7-6c-0.1,0-0.2,0-0.3,0c-13.8,0-25-9-25-20
		s11.2-20,25-20s25,9,25,20C-73.5,1005.2-79,1011.9-87,1015.3z"/>
</g>
<g>
	<path id="path-1_1_" class="st1" d="M-87,1015.3c1,4.5,3.5,8.2,3.5,8.2c-3.6,0-10.1-3.4-14.2-5.8c-0.1,0-0.6-0.2-0.8-0.2
		c-13.8,0-25-9-25-20s11.2-20,25-20s25,9,25,20C-73.5,1005.2-79,1011.9-87,1015.3z"/>
</g>
</svg>
